<?xml version="1.0" standalone="no"?>
<!DOCTYPE svg PUBLIC "-//W3C//DTD SVG 20010904//EN"
 "http://www.w3.org/TR/2001/REC-SVG-20010904/DTD/svg10.dtd">
<svg version="1.0" xmlns="http://www.w3.org/2000/svg"
 width="1024.000000pt" height="1024.000000pt" viewBox="0 0 1024.000000 1024.000000"
 preserveAspectRatio="xMidYMid meet">
<metadata>
Created by potrace 1.14, written by Peter Selinger 2001-2017
</metadata>
<g transform="translate(0.000000,1024.000000) scale(0.100000,-0.100000)"
fill="#000000" stroke="none">
<path d="M1527 9604 c-1 -2 -34 -5 -72 -9 -39 -3 -95 -10 -125 -17 -30 -6 -58
-12 -62 -12 -3 -1 -10 -4 -14 -8 -4 -5 -13 -8 -20 -8 -8 0 -39 -12 -71 -27
-32 -14 -61 -25 -65 -25 -5 1 -8 -2 -8 -8 0 -5 -6 -10 -13 -10 -7 0 -23 -9
-35 -20 -12 -11 -25 -20 -30 -20 -17 0 -180 -165 -216 -219 -54 -80 -103 -186
-129 -276 l-22 -80 -2 -3720 c-1 -2447 1 -3735 8 -3765 5 -25 11 -56 13 -70 2
-14 5 -26 6 -27 1 -2 3 -6 5 -10 17 -61 69 -175 107 -233 53 -81 167 -197 243
-248 124 -83 283 -139 414 -146 40 -2 74 -6 77 -9 3 -2 21 -1 40 3 19 4 36 4
39 0 3 -4 21 -4 40 0 19 4 37 4 40 0 3 -4 21 -4 40 0 19 4 37 4 40 0 3 -4 21
-4 40 0 19 4 37 4 40 0 3 -4 22 -4 42 1 21 4 38 8 38 8 0 -6 87 -14 90 -9 3 4
21 4 40 0 19 -4 35 -4 35 0 0 4 18 4 40 0 22 -4 40 -4 40 0 0 4 20 4 45 0 25
-4 45 -4 45 -1 0 7 96 5 115 -2 6 -3 17 -2 24 3 7 4 28 4 46 0 18 -4 39 -4 45
0 7 4 26 4 41 0 16 -5 31 -5 34 -1 2 5 23 5 45 1 22 -4 40 -4 40 0 0 4 20 4
45 0 25 -4 45 -4 45 -1 0 7 96 5 115 -2 6 -3 17 -2 24 3 7 4 28 4 46 0 18 -4
38 -4 45 0 7 4 24 5 38 1 14 -4 45 -4 69 -1 24 4 43 4 43 1 0 -7 127 -4 146 3
8 3 16 1 19 -3 3 -5 21 -5 40 -1 19 4 37 4 40 0 3 -4 21 -4 40 0 19 4 37 4 40
0 3 -4 21 -4 40 0 19 4 37 4 40 0 3 -4 21 -4 40 0 19 4 37 4 40 0 3 -4 21 -4
40 0 19 4 37 4 40 0 3 -4 21 -4 40 0 19 4 37 4 40 0 3 -4 20 -5 37 -1 33 7 92
5 116 -4 6 -2 12 -1 12 3 0 7 126 6 147 -2 7 -3 15 -1 17 3 3 5 23 6 43 2 21
-3 56 -4 78 -1 22 3 51 3 65 -1 14 -3 34 -3 45 1 11 4 32 4 47 -1 15 -4 30 -4
33 1 3 4 20 4 39 0 19 -4 39 -4 46 0 7 4 27 4 46 0 19 -4 34 -5 34 -1 0 4 19
5 43 1 23 -3 63 -3 88 0 26 4 55 3 64 0 10 -4 38 -3 62 0 23 4 43 4 43 -1 0
-4 16 -3 35 1 19 4 37 4 40 0 3 -4 20 -4 39 0 19 4 37 5 40 2 7 -7 154 -5 165
3 5 3 12 1 15 -4 3 -5 21 -5 41 -1 19 4 37 4 40 0 3 -4 21 -4 40 0 19 4 37 4
40 0 3 -4 21 -4 40 0 19 4 37 4 40 0 3 -4 21 -4 40 0 19 4 37 4 40 0 3 -4 21
-4 40 0 19 4 37 4 40 0 3 -4 21 -4 40 0 19 4 37 4 40 0 3 -4 22 -4 42 1 21 4
38 8 38 8 0 -6 87 -14 90 -9 3 4 21 4 40 0 19 -4 35 -4 35 0 0 4 18 4 40 0 22
-4 40 -4 40 0 0 4 20 4 45 0 25 -4 45 -4 45 -1 0 7 96 5 115 -2 6 -3 17 -2 24
3 7 4 28 4 46 0 18 -4 39 -4 45 0 7 4 26 4 41 0 16 -5 31 -5 34 -1 2 5 23 5
45 1 22 -4 40 -4 40 0 0 4 20 4 45 0 25 -4 45 -4 45 -1 0 7 96 5 115 -2 6 -3
17 -2 24 3 7 4 28 4 46 0 18 -4 38 -4 45 0 7 4 24 5 38 1 14 -4 45 -4 69 -1
24 4 43 4 43 1 0 -7 127 -4 146 3 8 3 16 1 19 -3 3 -5 21 -5 40 -1 19 4 37 4
40 0 3 -4 21 -4 40 0 19 4 37 4 40 0 3 -4 21 -4 40 0 19 4 37 4 40 0 3 -4 21
-4 40 0 19 4 37 4 40 0 3 -4 21 -4 40 0 19 4 37 4 40 0 3 -4 21 -4 40 0 19 4
37 4 40 0 3 -4 20 -5 37 -1 33 7 92 5 116 -4 6 -2 12 -1 12 3 0 7 126 6 147
-2 7 -3 15 -1 17 3 3 5 23 6 43 2 21 -3 56 -4 78 -1 22 3 51 3 65 -1 14 -3 34
-3 45 1 11 4 32 4 47 -1 15 -4 30 -4 33 1 3 4 20 4 39 0 19 -4 39 -4 46 0 7 4
27 4 46 0 20 -5 34 -4 34 2 0 5 5 6 10 3 6 -4 43 -6 83 -5 39 1 81 1 92 0 92
-4 125 -4 125 0 0 3 28 5 63 6 78 1 169 17 237 42 8 3 17 6 20 7 3 0 20 9 38
18 17 10 32 15 32 12 0 -9 103 57 165 106 100 79 186 183 244 296 27 54 68
181 78 241 9 56 11 7424 2 7498 -4 29 -10 57 -13 63 -4 6 -10 24 -12 39 -8 45
-67 173 -109 237 -41 62 -184 215 -202 215 -5 0 -18 9 -28 20 -23 26 -202 113
-257 126 -5 1 -9 2 -10 4 -2 1 -16 4 -33 6 -44 7 -70 12 -70 14 0 1 -28 3 -63
5 -34 2 -67 7 -72 10 -6 3 -10 3 -10 -2 0 -4 -18 -8 -40 -8 -22 0 -40 3 -40 6
0 4 -17 3 -38 -1 -20 -3 -48 -3 -62 0 -14 4 -34 4 -45 0 -11 -4 -32 -4 -47 1
-15 4 -30 4 -33 -1 -3 -4 -20 -4 -39 0 -19 4 -39 4 -46 0 -7 -4 -27 -4 -46 0
-19 4 -34 5 -34 1 0 -4 -19 -5 -42 -1 -24 3 -64 3 -89 0 -26 -4 -55 -3 -64 0
-10 4 -38 3 -62 0 -23 -4 -43 -4 -43 1 0 4 -16 3 -35 -1 -19 -4 -37 -4 -40 0
-3 4 -20 4 -39 0 -19 -4 -37 -5 -40 -2 -7 7 -154 5 -165 -3 -5 -3 -12 -1 -15
4 -3 5 -21 5 -41 1 -19 -4 -37 -4 -40 0 -3 4 -21 4 -40 0 -19 -4 -37 -4 -40 0
-3 4 -21 4 -40 0 -19 -4 -37 -4 -40 0 -3 4 -21 4 -40 0 -19 -4 -37 -4 -40 0
-3 4 -21 4 -40 0 -19 -4 -37 -4 -40 0 -3 4 -21 4 -40 0 -19 -4 -37 -4 -40 0
-3 4 -22 4 -42 -1 -21 -4 -40 -7 -43 -7 -36 10 -81 14 -85 8 -3 -4 -21 -4 -40
0 -19 4 -35 4 -35 0 0 -4 -18 -4 -40 0 -22 4 -40 4 -40 0 0 -4 -20 -4 -45 0
-25 4 -45 4 -45 1 0 -7 -96 -5 -115 2 -6 3 -17 2 -24 -3 -7 -4 -28 -4 -46 0
-18 4 -39 4 -45 0 -7 -4 -26 -4 -41 0 -16 5 -31 5 -34 1 -2 -5 -23 -5 -45 -1
-22 4 -40 4 -40 0 0 -4 -20 -4 -45 0 -25 4 -45 4 -45 1 0 -7 -96 -5 -115 2 -6
3 -17 2 -24 -3 -7 -4 -28 -4 -46 0 -18 4 -38 4 -45 0 -7 -4 -24 -5 -38 -1 -14
4 -45 4 -69 1 -24 -4 -43 -4 -43 -1 0 7 -127 4 -146 -3 -8 -3 -16 -1 -19 3 -3
5 -21 5 -40 1 -19 -4 -37 -4 -40 0 -3 4 -21 4 -40 0 -19 -4 -37 -4 -40 0 -3 4
-21 4 -40 0 -19 -4 -37 -4 -40 0 -3 4 -21 4 -40 0 -19 -4 -37 -4 -40 0 -3 4
-21 4 -40 0 -19 -4 -37 -4 -40 0 -3 4 -21 4 -40 0 -19 -4 -37 -4 -40 1 -3 4
-11 6 -18 4 -23 -9 -82 -11 -114 -4 -18 4 -33 4 -33 0 0 -7 -128 -4 -147 3 -7
3 -15 1 -17 -3 -3 -5 -23 -6 -43 -2 -21 3 -56 4 -78 1 -22 -3 -51 -3 -65 1
-14 3 -34 3 -45 -1 -11 -4 -32 -4 -47 1 -15 4 -30 4 -33 -1 -3 -4 -20 -4 -39
0 -19 4 -39 4 -46 0 -7 -4 -27 -4 -46 0 -19 4 -34 5 -34 1 0 -4 -19 -5 -42 -1
-24 3 -64 3 -89 0 -26 -4 -55 -3 -64 0 -10 4 -38 3 -62 0 -23 -4 -43 -4 -43 1
0 4 -16 3 -35 -1 -19 -4 -37 -4 -40 0 -3 4 -20 4 -39 0 -19 -4 -37 -5 -40 -2
-7 7 -154 5 -165 -3 -5 -3 -12 -1 -15 4 -3 5 -21 5 -41 1 -19 -4 -37 -4 -40 0
-3 4 -21 4 -40 0 -19 -4 -37 -4 -40 0 -3 4 -21 4 -40 0 -19 -4 -37 -4 -40 0
-3 4 -21 4 -40 0 -19 -4 -37 -4 -40 0 -3 4 -21 4 -40 0 -19 -4 -37 -4 -40 0
-3 4 -21 4 -40 0 -19 -4 -37 -4 -40 0 -3 4 -22 4 -42 -1 -21 -4 -38 -8 -38 -8
0 6 -87 14 -90 9 -3 -4 -21 -4 -40 0 -19 4 -35 4 -35 0 0 -4 -18 -4 -40 0 -22
4 -40 4 -40 0 0 -4 -20 -4 -45 0 -25 4 -45 4 -45 1 0 -7 -96 -5 -115 2 -6 3
-17 2 -24 -3 -7 -4 -28 -4 -46 0 -18 4 -39 4 -45 0 -7 -4 -26 -4 -41 0 -16 5
-31 5 -34 1 -2 -5 -23 -5 -45 -1 -22 4 -40 4 -40 0 0 -4 -20 -4 -45 0 -25 4
-45 4 -45 1 0 -7 -96 -5 -115 2 -6 3 -17 2 -24 -3 -7 -4 -28 -4 -46 0 -18 4
-38 4 -45 0 -7 -4 -24 -5 -38 -1 -14 4 -45 4 -69 1 -24 -4 -43 -4 -43 -1 0 7
-127 4 -146 -3 -8 -3 -16 -1 -19 3 -3 5 -21 5 -40 1 -19 -4 -37 -4 -40 0 -3 4
-21 4 -40 0 -19 -4 -37 -4 -40 0 -3 4 -19 5 -37 1 -18 -4 -52 -4 -75 -1 -24 4
-44 6 -46 4z m468 -2825 c6 0 75 0 155 0 80 0 152 0 160 0 8 0 80 0 160 0 80
0 152 0 160 0 8 0 44 0 80 1 108 2 232 -8 312 -26 15 -3 30 -5 33 -5 3 0 40
-12 83 -28 314 -116 517 -384 579 -764 8 -52 9 -1576 1 -1642 -13 -98 -18
-125 -42 -205 -15 -51 -75 -189 -86 -200 -3 -3 -21 -30 -41 -60 -93 -142 -259
-268 -422 -320 -37 -12 -73 -23 -80 -24 -6 -2 -23 -6 -37 -9 -14 -4 -38 -10
-55 -13 -16 -4 -276 -8 -577 -10 l-548 -3 0 1653 c0 1083 3 1655 10 1658 5 2
40 2 77 0 38 -2 73 -3 78 -3z m3276 1 c15 4 32 4 39 0 7 -5 23 -4 36 0 12 5
24 6 27 4 3 -3 86 -5 185 -4 l180 1 -1 -296 0 -295 -532 0 -532 0 -1 -384 0
-385 40 2 c22 2 42 -1 44 -5 3 -5 10 -6 15 -2 17 10 59 12 65 2 3 -4 10 -6 15
-2 9 5 199 9 224 4 6 -1 15 -1 20 0 6 1 57 2 115 3 l105 0 5 -29 c3 -16 5
-148 5 -294 l-1 -265 -326 -5 -326 -5 1 -382 0 -381 511 -1 c281 0 521 0 532
-1 22 0 22 0 20 -292 l-1 -293 -640 -3 c-462 -2 -655 0 -695 9 -51 10 -117 38
-144 60 -6 5 -25 20 -43 34 -70 56 -120 162 -130 274 -2 30 -7 59 -9 63 -3 4
0 8 6 8 6 0 9 4 5 10 -3 5 -6 40 -6 77 0 111 0 202 0 221 1 33 0 167 0 177 -1
6 -1 42 0 80 0 39 0 77 0 85 -1 18 0 163 2 310 1 110 1 113 -1 145 0 11 0 27
1 35 1 8 1 42 0 75 -1 33 -2 96 -2 140 0 44 0 85 0 90 -1 6 -1 42 0 80 0 39 0
77 0 85 -1 18 0 163 2 310 1 110 1 113 -1 145 0 11 0 27 1 35 1 8 1 42 0 75
-1 56 -2 152 -1 255 0 81 28 205 49 220 4 3 18 22 31 44 32 53 129 122 206
146 60 18 94 19 446 20 209 0 383 2 385 4 3 3 15 1 26 -3 12 -5 34 -5 48 -1z
m964 0 c11 4 25 6 30 4 29 -10 65 -11 71 -3 3 5 10 7 15 3 13 -8 132 -10 145
-2 5 4 16 3 24 -2 7 -4 23 -4 36 0 12 5 24 7 25 5 10 -9 70 -12 75 -4 3 5 10
6 16 3 6 -4 25 -7 41 -8 31 -1 35 -7 52 -81 6 -28 39 -154 65 -250 12 -44 23
-87 25 -95 2 -8 13 -51 24 -95 12 -44 24 -91 27 -105 2 -14 7 -32 10 -40 9
-22 84 -310 90 -345 3 -16 10 -38 15 -47 5 -9 9 -21 8 -25 -1 -4 0 -10 1 -13
1 -3 3 -13 6 -22 2 -10 6 -26 8 -35 3 -10 5 -18 6 -18 2 0 4 -12 13 -55 3 -14
21 -83 40 -155 19 -71 38 -143 43 -160 4 -16 8 -34 10 -40 10 -35 46 -173 48
-185 1 -8 8 -31 14 -50 6 -19 13 -46 16 -60 2 -14 9 -37 15 -52 6 -16 8 -28 5
-28 -4 0 -1 -6 5 -13 6 -8 8 -17 5 -20 -3 -3 -2 -12 2 -19 4 -7 9 -19 10 -28
1 -8 5 -24 8 -35 3 -11 15 -57 27 -102 12 -46 25 -80 30 -77 5 3 9 11 9 19 0
8 43 180 96 382 53 202 98 379 101 392 2 13 8 32 14 43 5 10 7 18 5 18 -3 0 2
19 10 42 8 23 12 48 10 55 -3 7 -2 13 3 13 5 0 12 19 16 43 4 23 9 47 11 52 3
10 53 198 60 225 2 8 10 44 19 80 8 36 18 72 21 80 3 8 5 16 5 17 0 2 5 17 10
35 6 18 12 44 15 58 2 14 7 32 11 40 3 8 7 22 8 30 1 8 10 42 19 75 9 33 18
67 20 75 5 18 96 368 102 390 2 8 7 31 12 50 8 34 9 35 59 36 29 1 59 4 67 7
8 3 18 3 20 -2 4 -7 40 -7 56 -1 3 1 10 1 15 0 13 -3 136 -2 150 0 6 1 15 2
20 0 13 -2 128 -2 140 0 6 1 15 1 20 0 6 -1 31 -1 56 0 26 1 49 -3 52 -7 3 -5
0 -28 -8 -51 -8 -22 -17 -54 -20 -70 -2 -16 -11 -47 -19 -70 -8 -23 -13 -42
-11 -42 2 0 -1 -15 -6 -32 -12 -39 -43 -155 -69 -253 -10 -38 -28 -106 -40
-150 -12 -44 -23 -87 -25 -95 -1 -8 -10 -42 -19 -75 -21 -75 -26 -95 -32 -122
-2 -12 -9 -34 -14 -48 -5 -14 -7 -25 -4 -25 2 0 0 -8 -5 -19 -6 -10 -13 -31
-16 -47 -3 -16 -12 -54 -20 -84 -9 -30 -18 -62 -20 -70 -2 -8 -4 -15 -5 -15
-1 0 -4 -13 -6 -30 -3 -16 -9 -35 -15 -41 -5 -6 -7 -13 -4 -16 3 -3 -1 -24 -9
-47 -9 -23 -16 -45 -16 -49 -2 -16 -31 -127 -135 -517 -95 -354 -87 -326 -101
-390 -3 -16 -9 -34 -12 -40 -4 -5 -7 -14 -8 -20 -10 -49 -13 -60 -14 -60 -2 0
-5 -14 -14 -53 -3 -12 -7 -26 -10 -30 -3 -5 -7 -19 -10 -33 -10 -46 -14 -65
-45 -183 -83 -316 -280 -526 -490 -527 -49 0 -91 5 -98 11 -2 2 -6 3 -10 4 -5
1 -24 8 -43 15 -110 45 -226 164 -303 312 -30 59 -39 82 -52 139 -2 8 -18 65
-35 125 -17 61 -33 119 -35 131 -13 57 -73 280 -82 304 -3 8 -7 22 -8 30 -2
16 -20 85 -55 215 -12 44 -23 87 -25 95 -2 8 -4 15 -5 15 -1 0 -3 7 -5 15 -9
39 -35 138 -44 168 -5 18 -10 33 -10 35 0 1 -2 9 -4 17 -13 40 -49 184 -50
201 -1 10 -4 19 -7 19 -4 0 -7 6 -7 13 0 6 -13 57 -27 112 -15 55 -28 105 -30
110 -1 6 -5 19 -9 30 -3 11 -8 31 -11 45 -3 14 -15 59 -27 100 -12 41 -23 84
-24 95 -2 11 -20 79 -40 150 -20 72 -38 141 -41 155 -3 14 -8 34 -11 45 -4 11
-8 25 -9 30 -2 6 -10 37 -19 69 -8 33 -17 67 -19 75 -2 9 -6 23 -9 31 -3 8
-12 42 -21 75 -20 83 -54 211 -71 268 -16 54 -10 62 38 53 15 -2 29 0 32 5 4
5 13 5 23 0 9 -5 26 -5 37 -1z"/>
<path d="M2470 6162 c-7 -3 -10 -361 -10 -1048 l0 -1044 208 4 c114 2 214 6
222 8 34 9 110 44 110 51 0 4 6 7 13 7 6 1 33 22 59 48 32 33 52 65 66 106 19
58 20 88 20 806 0 449 -4 767 -10 800 -15 85 -48 132 -135 193 -51 36 -99 55
-145 59 -16 1 -28 5 -28 8 0 5 -353 7 -370 2z"/>
</g>
</svg>
