<svg width="24" height="24" viewBox="0 0 24 24" fill="none" xmlns="http://www.w3.org/2000/svg">
<path d="M18.875 9.21429H13.375V3.64286H5.125V20.3571H18.875V9.21429ZM18.3058 7.82143L14.75 4.2195V7.82143H18.3058ZM4.4375 2.25H14.75L20.25 7.82143V21.0536C20.25 21.2383 20.1776 21.4154 20.0486 21.546C19.9197 21.6766 19.7448 21.75 19.5625 21.75H4.4375C4.25516 21.75 4.0803 21.6766 3.95136 21.546C3.82243 21.4154 3.75 21.2383 3.75 21.0536V2.94643C3.75 2.76172 3.82243 2.58458 3.95136 2.45398C4.0803 2.32337 4.25516 2.25 4.4375 2.25ZM7.875 12H16.125V13.3929H7.875V12ZM7.875 7.82143H11.3125V9.21429H7.875V7.82143ZM7.875 16.1786H16.125V17.5714H7.875V16.1786Z" fill="#7084C8"/>
</svg>
