<svg width="114" height="103" viewBox="0 0 114 103" fill="none" xmlns="http://www.w3.org/2000/svg">
<path d="M1 26.1034C1 12.2392 12.2392 1 26.1034 1H87.8966C101.761 1 113 12.2392 113 26.1034V55.4587H1V26.1034Z" fill="white" stroke="black" stroke-width="1.28736" stroke-linejoin="round"/>
<path d="M3.05493 26.2275C3.05493 13.4297 13.4296 3.05506 26.2273 3.05506H87.7724C100.57 3.05506 110.945 13.4297 110.945 26.2275V84.7431H3.05493V26.2275Z" fill="white" stroke="black" stroke-width="1.28736" stroke-linejoin="round"/>
<path d="M3.05493 80.6331H110.945V84.7431H3.05493V80.6331Z" fill="white" stroke="black" stroke-width="1.28736" stroke-linejoin="round"/>
<path d="M3.05493 80.6331H110.945V79.6055H3.05493V80.6331Z" fill="white" stroke="black" stroke-width="0.643678" stroke-linejoin="round"/>
<circle cx="57" cy="55.4587" r="46.2385" fill="white" stroke="black" stroke-width="1.28736" stroke-linejoin="round"/>
<circle cx="57.0001" cy="55.4587" r="42.6422" fill="white" stroke="black" stroke-width="1.28736" stroke-linejoin="round"/>
<circle cx="57.0001" cy="55.4587" r="39.5596" fill="white" stroke="black" stroke-width="0.643678" stroke-linejoin="round"/>
<circle cx="57" cy="55.4587" r="29.2844" fill="white" stroke="black" stroke-width="0.643678" stroke-linejoin="round"/>
<circle cx="99.1284" cy="12.8165" r="2.56881" fill="white" stroke="black" stroke-width="1.28736" stroke-linejoin="round"/>
<circle cx="93.9909" cy="11.2752" r="1.02752" fill="white" stroke="black" stroke-width="0.643678" stroke-linejoin="round"/>
<circle cx="90.3945" cy="11.2752" r="1.02752" fill="white" stroke="black" stroke-width="0.643678" stroke-linejoin="round"/>
<circle cx="15.3854" cy="11.2752" r="1.02752" fill="white" stroke="black" stroke-width="0.643678" stroke-linejoin="round"/>
<circle cx="56.9999" cy="55.4587" r="23.1193" fill="white" stroke="black" stroke-width="1.28736" stroke-linejoin="round"/>
<path d="M57.0001 73.9541C59.5058 73.9541 61.9853 73.445 64.2883 72.4576C66.5913 71.4702 68.6696 70.0252 70.3971 68.2102C72.1246 66.3952 73.4654 64.2481 74.3379 61.8992C75.2104 59.5503 75.5966 57.0486 75.4729 54.546" stroke="black" stroke-width="0.643678" stroke-linejoin="round"/>
<path d="M73.9659 48.0939C72.0126 43.5943 68.3518 40.0549 63.789 38.2543" stroke="black" stroke-width="0.643678" stroke-linejoin="round"/>
<path d="M71.4598 62.135C72.3366 60.2361 72.8307 58.1832 72.9141 56.0933C72.9974 54.0035 72.6683 51.9177 71.9455 49.955" stroke="black" stroke-width="0.643678" stroke-linejoin="round"/>
<path d="M65.3111 41.8725C62.7738 40.3205 59.8527 39.5099 56.8784 39.5326" stroke="black" stroke-width="0.643678" stroke-linejoin="round"/>
<path d="M41.1154 54.304C40.9947 55.9648 41.1351 57.6342 41.5317 59.2514" stroke="black" stroke-width="0.643678" stroke-linejoin="round"/>
<path d="M43.9218 42.3805C40.4533 45.8491 38.5046 50.5534 38.5046 55.4587" stroke="black" stroke-width="0.643678" stroke-linejoin="round"/>
</svg>
