<svg width="140" height="140" viewBox="0 0 140 140" fill="none" xmlns="http://www.w3.org/2000/svg">
<path d="M14 44.1034C14 30.2392 25.2392 19 39.1034 19H100.897C114.761 19 126 30.2392 126 44.1034V73.4587H14V44.1034Z" fill="white" stroke="black" stroke-width="1.28736" stroke-linejoin="round"/>
<path d="M16.0549 44.2275C16.0549 31.4297 26.4296 21.0551 39.2273 21.0551H100.772C113.57 21.0551 123.945 31.4297 123.945 44.2275V102.743H16.0549V44.2275Z" fill="white" stroke="black" stroke-width="1.28736" stroke-linejoin="round"/>
<path d="M16.0549 98.6331H123.945V102.743H16.0549V98.6331Z" fill="white" stroke="black" stroke-width="1.28736" stroke-linejoin="round"/>
<path d="M16.0549 98.6331H123.945V97.6055H16.0549V98.6331Z" fill="white" stroke="black" stroke-width="0.643678" stroke-linejoin="round"/>
<circle cx="70" cy="73.4587" r="46.2385" fill="white" stroke="black" stroke-width="1.28736" stroke-linejoin="round"/>
<circle cx="70.0001" cy="73.4587" r="42.6422" fill="white" stroke="black" stroke-width="1.28736" stroke-linejoin="round"/>
<circle cx="70.0001" cy="73.4587" r="39.5596" fill="white" stroke="black" stroke-width="0.643678" stroke-linejoin="round"/>
<circle cx="70" cy="73.4587" r="29.2844" fill="white" stroke="black" stroke-width="0.643678" stroke-linejoin="round"/>
<circle cx="112.128" cy="30.8165" r="2.56881" fill="white" stroke="black" stroke-width="1.28736" stroke-linejoin="round"/>
<circle cx="106.991" cy="29.2752" r="1.02752" fill="white" stroke="black" stroke-width="0.643678" stroke-linejoin="round"/>
<circle cx="103.394" cy="29.2752" r="1.02752" fill="white" stroke="black" stroke-width="0.643678" stroke-linejoin="round"/>
<circle cx="28.3854" cy="29.2752" r="1.02752" fill="white" stroke="black" stroke-width="0.643678" stroke-linejoin="round"/>
<circle cx="69.9999" cy="73.4587" r="23.1193" fill="white" stroke="black" stroke-width="1.28736" stroke-linejoin="round"/>
<path d="M70.0001 91.9541C72.5058 91.9541 74.9853 91.445 77.2883 90.4576C79.5913 89.4702 81.6696 88.0252 83.3971 86.2102C85.1246 84.3952 86.4654 82.2481 87.3379 79.8992C88.2104 77.5503 88.5966 75.0486 88.4729 72.546" stroke="black" stroke-width="0.643678" stroke-linejoin="round"/>
<path d="M86.9659 66.0939C85.0126 61.5943 81.3518 58.0549 76.789 56.2543" stroke="black" stroke-width="0.643678" stroke-linejoin="round"/>
<path d="M84.4598 80.135C85.3366 78.2361 85.8307 76.1832 85.9141 74.0933C85.9974 72.0035 85.6683 69.9177 84.9455 67.955" stroke="black" stroke-width="0.643678" stroke-linejoin="round"/>
<path d="M78.3111 59.8725C75.7738 58.3205 72.8527 57.5099 69.8784 57.5326" stroke="black" stroke-width="0.643678" stroke-linejoin="round"/>
<path d="M54.1154 72.304C53.9947 73.9648 54.1351 75.6342 54.5317 77.2514" stroke="black" stroke-width="0.643678" stroke-linejoin="round"/>
<path d="M56.9218 60.3805C53.4533 63.8491 51.5046 68.5534 51.5046 73.4587" stroke="black" stroke-width="0.643678" stroke-linejoin="round"/>
</svg>
