<svg width="108" height="103" viewBox="0 0 108 103" fill="none" xmlns="http://www.w3.org/2000/svg">
<path d="M76.5591 6.43589C76.5591 4.03416 78.5061 2.08717 80.9078 2.08717H102.651C105.053 2.08717 107 4.03415 107 6.43588V101.564H76.5591V6.43589Z" fill="white" stroke="black" stroke-width="1.08718" stroke-linejoin="round"/>
<path d="M78.7334 5.89229C78.7334 4.69143 79.7069 3.71793 80.9078 3.71793H102.651C103.852 3.71793 104.826 4.69143 104.826 5.89229V101.564H78.7334V5.89229Z" fill="white" stroke="black" stroke-width="0.54359" stroke-linejoin="round"/>
<path d="M89.6052 41.7692C89.6052 41.469 89.8486 41.2256 90.1488 41.2256H93.4104C93.7106 41.2256 93.9539 41.469 93.9539 41.7692V50.4666C93.9539 50.7669 93.7106 51.0102 93.4104 51.0102H90.1488C89.8486 51.0102 89.6052 50.7669 89.6052 50.4666V41.7692Z" fill="white" stroke="black" stroke-width="0.54359" stroke-linejoin="round"/>
<path d="M89.6052 34.7025C89.6052 34.4023 89.8486 34.159 90.1488 34.159H93.4104C93.7106 34.159 93.9539 34.4023 93.9539 34.7025V37.9641C93.9539 38.2643 93.7106 38.5077 93.4104 38.5077H90.1488C89.8486 38.5077 89.6052 38.2643 89.6052 37.9641V34.7025Z" fill="white" stroke="black" stroke-width="0.54359" stroke-linejoin="round"/>
<path d="M87.9744 1.54357C87.9744 1.24336 88.2177 0.999985 88.518 0.999985H95.041C95.3412 0.999985 95.5846 1.24336 95.5846 1.54357C95.5846 1.84379 95.3412 2.08716 95.041 2.08716H88.518C88.2177 2.08716 87.9744 1.84379 87.9744 1.54357Z" fill="white" stroke="black" stroke-width="0.54359" stroke-linejoin="round"/>
<path d="M74.9282 37.9641C74.9282 37.6639 75.1716 37.4205 75.4718 37.4205H76.0154C76.3156 37.4205 76.559 37.6639 76.559 37.9641V45.5743C76.559 45.8746 76.3156 46.1179 76.0154 46.1179H75.4718C75.1716 46.1179 74.9282 45.8746 74.9282 45.5743V37.9641Z" fill="white" stroke="black" stroke-width="1.08718" stroke-linejoin="round"/>
<path d="M72.7539 13.5025C72.7539 12.6019 73.484 11.8718 74.3847 11.8718H96.4001C99.8526 11.8718 102.651 14.6706 102.651 18.1231C102.651 21.5756 99.8525 24.3743 96.4001 24.3743H74.3847C73.484 24.3743 72.7539 23.6442 72.7539 22.7436V13.5025Z" fill="white" stroke="black" stroke-width="1.08718" stroke-linejoin="round"/>
<path d="M3.17432 13.5025H72.7538V22.7436H3.17432V13.5025Z" fill="white" stroke="black" stroke-width="1.08718" stroke-linejoin="round"/>
<path d="M1 16.7641C1 15.5632 1.97349 14.5897 3.17436 14.5897V21.6564C1.97349 21.6564 1 20.6829 1 19.482V16.7641Z" fill="white" stroke="black" stroke-width="1.08718" stroke-linejoin="round"/>
<path d="M3.17432 15.1333H72.7538V21.1128H3.17432V15.1333Z" fill="white" stroke="black" stroke-width="0.54359" stroke-linejoin="round"/>
<path d="M80.364 13.0102C80.364 12.3815 80.8737 11.8718 81.5025 11.8718H94.2255C97.678 11.8718 100.477 14.6706 100.477 18.1231C100.477 21.5756 97.678 24.3743 94.2256 24.3743H81.5025C80.8737 24.3743 80.364 23.8646 80.364 23.2359V13.0102Z" fill="white" stroke="black" stroke-width="1.08718" stroke-linejoin="round"/>
<path d="M82.5386 11.8718H84.1693V24.3743H82.5386V11.8718Z" fill="white" stroke="black" stroke-width="0.54359" stroke-linejoin="round"/>
</svg>
