<svg width="140" height="140" viewBox="0 0 140 140" fill="none" xmlns="http://www.w3.org/2000/svg">
<path d="M92.5591 24.4359C92.5591 22.0342 94.5061 20.0872 96.9078 20.0872H118.651C121.053 20.0872 123 22.0342 123 24.4359V119.564H92.5591V24.4359Z" fill="white" stroke="black" stroke-width="1.08718" stroke-linejoin="round"/>
<path d="M94.7334 23.8923C94.7334 22.6914 95.7069 21.7179 96.9078 21.7179H118.651C119.852 21.7179 120.826 22.6914 120.826 23.8923V119.564H94.7334V23.8923Z" fill="white" stroke="black" stroke-width="0.54359" stroke-linejoin="round"/>
<path d="M105.605 59.7692C105.605 59.469 105.849 59.2256 106.149 59.2256H109.41C109.711 59.2256 109.954 59.469 109.954 59.7692V68.4666C109.954 68.7669 109.711 69.0102 109.41 69.0102H106.149C105.849 69.0102 105.605 68.7669 105.605 68.4666V59.7692Z" fill="white" stroke="black" stroke-width="0.54359" stroke-linejoin="round"/>
<path d="M105.605 52.7025C105.605 52.4023 105.849 52.159 106.149 52.159H109.41C109.711 52.159 109.954 52.4023 109.954 52.7025V55.9641C109.954 56.2643 109.711 56.5077 109.41 56.5077H106.149C105.849 56.5077 105.605 56.2643 105.605 55.9641V52.7025Z" fill="white" stroke="black" stroke-width="0.54359" stroke-linejoin="round"/>
<path d="M103.974 19.5436C103.974 19.2434 104.218 19 104.518 19H111.041C111.341 19 111.585 19.2434 111.585 19.5436C111.585 19.8438 111.341 20.0872 111.041 20.0872H104.518C104.218 20.0872 103.974 19.8438 103.974 19.5436Z" fill="white" stroke="black" stroke-width="0.54359" stroke-linejoin="round"/>
<path d="M90.9282 55.9641C90.9282 55.6639 91.1716 55.4205 91.4718 55.4205H92.0154C92.3156 55.4205 92.559 55.6639 92.559 55.9641V63.5743C92.559 63.8746 92.3156 64.1179 92.0154 64.1179H91.4718C91.1716 64.1179 90.9282 63.8746 90.9282 63.5743V55.9641Z" fill="white" stroke="black" stroke-width="1.08718" stroke-linejoin="round"/>
<path d="M88.7539 31.5025C88.7539 30.6019 89.484 29.8718 90.3847 29.8718H112.4C115.853 29.8718 118.651 32.6706 118.651 36.1231C118.651 39.5756 115.853 42.3743 112.4 42.3743H90.3847C89.484 42.3743 88.7539 41.6442 88.7539 40.7436V31.5025Z" fill="white" stroke="black" stroke-width="1.08718" stroke-linejoin="round"/>
<path d="M19.1743 31.5025H88.7538V40.7436H19.1743V31.5025Z" fill="white" stroke="black" stroke-width="1.08718" stroke-linejoin="round"/>
<path d="M17 34.7641C17 33.5632 17.9735 32.5897 19.1744 32.5897V39.6564C17.9735 39.6564 17 38.6829 17 37.482V34.7641Z" fill="white" stroke="black" stroke-width="1.08718" stroke-linejoin="round"/>
<path d="M19.1743 33.1333H88.7538V39.1128H19.1743V33.1333Z" fill="white" stroke="black" stroke-width="0.54359" stroke-linejoin="round"/>
<path d="M96.364 31.0102C96.364 30.3815 96.8737 29.8718 97.5025 29.8718H110.226C113.678 29.8718 116.477 32.6706 116.477 36.1231C116.477 39.5756 113.678 42.3743 110.226 42.3743H97.5025C96.8737 42.3743 96.364 41.8646 96.364 41.2359V31.0102Z" fill="white" stroke="black" stroke-width="1.08718" stroke-linejoin="round"/>
<path d="M98.5386 29.8718H100.169V42.3743H98.5386V29.8718Z" fill="white" stroke="black" stroke-width="0.54359" stroke-linejoin="round"/>
</svg>
