<svg width="69" height="102" viewBox="0 0 69 102" fill="none" xmlns="http://www.w3.org/2000/svg">
<path d="M1 13.8417C1 6.74941 6.74941 1 13.8417 1H55.1583C62.2506 1 68 6.74941 68 13.8417V88.6583C68 95.7506 62.2506 101.5 55.1583 101.5H13.8417C6.74941 101.5 1 95.7506 1 88.6583V13.8417Z" fill="white" stroke="#526168" stroke-width="0.558333" stroke-linejoin="round"/>
<path d="M2.67505 13.8417C2.67505 7.6745 7.67454 2.675 13.8417 2.675H55.1584C61.3256 2.675 66.3251 7.67449 66.3251 13.8417V88.6583C66.3251 94.8255 61.3256 99.825 55.1584 99.825H13.8417C7.67453 99.825 2.67505 94.8255 2.67505 88.6583V13.8417Z" fill="white" stroke="#526168" stroke-width="1.11667" stroke-linejoin="round"/>
<path d="M2.67505 43.4333H66.3251V46.7833H2.67505V43.4333Z" fill="white" stroke="#526168" stroke-width="1.11667" stroke-linejoin="round"/>
<path d="M16.075 55.1583C16.075 54.2333 16.8249 53.4833 17.75 53.4833H51.2499C52.175 53.4833 52.9249 54.2333 52.9249 55.1583V62.975C52.9249 63.9001 52.175 64.65 51.25 64.65H17.75C16.8249 64.65 16.075 63.9001 16.075 62.975V55.1583Z" fill="white" stroke="#526168" stroke-width="1.11667" stroke-linejoin="round"/>
<path d="M17.75 55.7167C17.75 55.4083 18 55.1583 18.3083 55.1583H50.6917C51 55.1583 51.25 55.4083 51.25 55.7167V62.4167C51.25 62.725 51 62.975 50.6917 62.975H18.3083C18 62.975 17.75 62.725 17.75 62.4167V55.7167Z" fill="white" stroke="#526168" stroke-width="0.558333" stroke-linejoin="round"/>
<path d="M2.67505 46.7833H66.3251V47.9H2.67505V46.7833Z" fill="white" stroke="#526168" stroke-width="0.558333" stroke-linejoin="round"/>
<circle cx="37.8501" cy="90.3333" r="0.558333" fill="white" stroke="#526168" stroke-width="0.558333" stroke-linejoin="round"/>
<circle cx="34.5" cy="90.3333" r="0.558333" fill="white" stroke="#526168" stroke-width="0.558333" stroke-linejoin="round"/>
<circle cx="31.1501" cy="90.3333" r="0.558333" fill="white" stroke="#526168" stroke-width="0.558333" stroke-linejoin="round"/>
<circle cx="37.8501" cy="88.1" r="0.558333" fill="white" stroke="#526168" stroke-width="0.558333" stroke-linejoin="round"/>
<circle cx="34.5" cy="88.1" r="0.558333" fill="white" stroke="#526168" stroke-width="0.558333" stroke-linejoin="round"/>
<circle cx="31.1501" cy="88.1" r="0.558333" fill="white" stroke="#526168" stroke-width="0.558333" stroke-linejoin="round"/>
<circle cx="39.5251" cy="89.2167" r="0.558333" fill="white" stroke="#526168" stroke-width="0.558333" stroke-linejoin="round"/>
<circle cx="36.175" cy="89.2167" r="0.558333" fill="white" stroke="#526168" stroke-width="0.558333" stroke-linejoin="round"/>
<circle cx="32.8252" cy="89.2167" r="0.558333" fill="white" stroke="#526168" stroke-width="0.558333" stroke-linejoin="round"/>
<circle cx="29.4751" cy="89.2167" r="0.558333" fill="white" stroke="#526168" stroke-width="0.558333" stroke-linejoin="round"/>
<circle cx="37.8501" cy="85.8667" r="0.558333" fill="white" stroke="#526168" stroke-width="0.558333" stroke-linejoin="round"/>
<circle cx="34.5" cy="85.8667" r="0.558333" fill="white" stroke="#526168" stroke-width="0.558333" stroke-linejoin="round"/>
<circle cx="31.1501" cy="85.8667" r="0.558333" fill="white" stroke="#526168" stroke-width="0.558333" stroke-linejoin="round"/>
<circle cx="39.5251" cy="86.9833" r="0.558333" fill="white" stroke="#526168" stroke-width="0.558333" stroke-linejoin="round"/>
<circle cx="36.175" cy="86.9833" r="0.558333" fill="white" stroke="#526168" stroke-width="0.558333" stroke-linejoin="round"/>
<circle cx="32.8252" cy="86.9833" r="0.558333" fill="white" stroke="#526168" stroke-width="0.558333" stroke-linejoin="round"/>
<circle cx="29.4751" cy="86.9833" r="0.558333" fill="white" stroke="#526168" stroke-width="0.558333" stroke-linejoin="round"/>
<circle cx="37.8501" cy="83.6333" r="0.558333" fill="white" stroke="#526168" stroke-width="0.558333" stroke-linejoin="round"/>
<circle cx="34.5" cy="83.6333" r="0.558333" fill="white" stroke="#526168" stroke-width="0.558333" stroke-linejoin="round"/>
<circle cx="31.1501" cy="83.6333" r="0.558333" fill="white" stroke="#526168" stroke-width="0.558333" stroke-linejoin="round"/>
<circle cx="39.5251" cy="84.75" r="0.558333" fill="white" stroke="#526168" stroke-width="0.558333" stroke-linejoin="round"/>
<circle cx="36.175" cy="84.75" r="0.558333" fill="white" stroke="#526168" stroke-width="0.558333" stroke-linejoin="round"/>
<circle cx="32.8252" cy="84.75" r="0.558333" fill="white" stroke="#526168" stroke-width="0.558333" stroke-linejoin="round"/>
<circle cx="29.4751" cy="84.75" r="0.558333" fill="white" stroke="#526168" stroke-width="0.558333" stroke-linejoin="round"/>
<circle cx="34.5001" cy="23.3333" r="13.4" fill="white" stroke="#526168" stroke-width="0.558333" stroke-linejoin="round"/>
<circle cx="34.4999" cy="23.3333" r="11.725" fill="white" stroke="#526168" stroke-width="1.11667" stroke-linejoin="round"/>
<circle cx="34.4999" cy="72.4667" r="3.90833" fill="white" stroke="#526168" stroke-width="1.11667" stroke-linejoin="round"/>
<circle cx="34.4999" cy="72.4667" r="2.23333" fill="white" stroke="#526168" stroke-width="0.558333" stroke-linejoin="round"/>
<path d="M43.2067 19.5538C42.2043 17.2446 40.3256 15.4282 37.984 14.5042" stroke="#526168" stroke-width="1.11667" stroke-linejoin="round"/>
<path d="M30.2974 29.9241C31.1629 30.476 32.1287 30.852 33.1395 31.0307C34.1503 31.2094 35.1865 31.1872 36.1887 30.9654" stroke="#526168" stroke-width="0.558333" stroke-linejoin="round"/>
<path d="M38.9375 29.7683C40.1393 28.9396 41.0849 27.7909 41.6674 26.4524" stroke="#526168" stroke-width="0.558333" stroke-linejoin="round"/>
<path d="M26.7039 22.7666C26.6447 23.5817 26.7136 24.401 26.9082 25.1947" stroke="#526168" stroke-width="1.11667" stroke-linejoin="round"/>
<path d="M27.7883 16.6217C26.0083 18.4017 25.0083 20.816 25.0083 23.3333" stroke="#526168" stroke-width="0.558333" stroke-linejoin="round"/>
</svg>
