<svg width="140" height="140" viewBox="0 0 140 140" fill="none" xmlns="http://www.w3.org/2000/svg">
<path d="M36 31.8417C36 24.7494 41.7494 19 48.8417 19H90.1583C97.2506 19 103 24.7494 103 31.8417V106.658C103 113.751 97.2506 119.5 90.1583 119.5H48.8417C41.7494 119.5 36 113.751 36 106.658V31.8417Z" fill="white" stroke="#526168" stroke-width="0.558333" stroke-linejoin="round"/>
<path d="M37.675 31.8417C37.675 25.6745 42.6745 20.675 48.8417 20.675H90.1584C96.3256 20.675 101.325 25.6745 101.325 31.8417V106.658C101.325 112.826 96.3256 117.825 90.1584 117.825H48.8417C42.6745 117.825 37.675 112.826 37.675 106.658V31.8417Z" fill="white" stroke="#526168" stroke-width="1.11667" stroke-linejoin="round"/>
<path d="M37.675 61.4333H101.325V64.7833H37.675V61.4333Z" fill="white" stroke="#526168" stroke-width="1.11667" stroke-linejoin="round"/>
<path d="M51.075 73.1583C51.075 72.2333 51.8249 71.4833 52.75 71.4833H86.2499C87.175 71.4833 87.9249 72.2333 87.9249 73.1583V80.975C87.9249 81.9001 87.175 82.65 86.25 82.65H52.75C51.8249 82.65 51.075 81.9001 51.075 80.975V73.1583Z" fill="white" stroke="#526168" stroke-width="1.11667" stroke-linejoin="round"/>
<path d="M52.75 73.7167C52.75 73.4083 53 73.1583 53.3083 73.1583H85.6917C86 73.1583 86.25 73.4083 86.25 73.7167V80.4167C86.25 80.725 86 80.975 85.6917 80.975H53.3083C53 80.975 52.75 80.725 52.75 80.4167V73.7167Z" fill="white" stroke="#526168" stroke-width="0.558333" stroke-linejoin="round"/>
<path d="M37.675 64.7833H101.325V65.9H37.675V64.7833Z" fill="white" stroke="#526168" stroke-width="0.558333" stroke-linejoin="round"/>
<circle cx="72.8501" cy="108.333" r="0.558333" fill="white" stroke="#526168" stroke-width="0.558333" stroke-linejoin="round"/>
<circle cx="69.5" cy="108.333" r="0.558333" fill="white" stroke="#526168" stroke-width="0.558333" stroke-linejoin="round"/>
<circle cx="66.1501" cy="108.333" r="0.558333" fill="white" stroke="#526168" stroke-width="0.558333" stroke-linejoin="round"/>
<circle cx="72.8501" cy="106.1" r="0.558333" fill="white" stroke="#526168" stroke-width="0.558333" stroke-linejoin="round"/>
<circle cx="69.5" cy="106.1" r="0.558333" fill="white" stroke="#526168" stroke-width="0.558333" stroke-linejoin="round"/>
<circle cx="66.1501" cy="106.1" r="0.558333" fill="white" stroke="#526168" stroke-width="0.558333" stroke-linejoin="round"/>
<circle cx="74.5251" cy="107.217" r="0.558333" fill="white" stroke="#526168" stroke-width="0.558333" stroke-linejoin="round"/>
<circle cx="71.175" cy="107.217" r="0.558333" fill="white" stroke="#526168" stroke-width="0.558333" stroke-linejoin="round"/>
<circle cx="67.8252" cy="107.217" r="0.558333" fill="white" stroke="#526168" stroke-width="0.558333" stroke-linejoin="round"/>
<circle cx="64.4751" cy="107.217" r="0.558333" fill="white" stroke="#526168" stroke-width="0.558333" stroke-linejoin="round"/>
<circle cx="72.8501" cy="103.867" r="0.558333" fill="white" stroke="#526168" stroke-width="0.558333" stroke-linejoin="round"/>
<circle cx="69.5" cy="103.867" r="0.558333" fill="white" stroke="#526168" stroke-width="0.558333" stroke-linejoin="round"/>
<circle cx="66.1501" cy="103.867" r="0.558333" fill="white" stroke="#526168" stroke-width="0.558333" stroke-linejoin="round"/>
<circle cx="74.5251" cy="104.983" r="0.558333" fill="white" stroke="#526168" stroke-width="0.558333" stroke-linejoin="round"/>
<circle cx="71.175" cy="104.983" r="0.558333" fill="white" stroke="#526168" stroke-width="0.558333" stroke-linejoin="round"/>
<circle cx="67.8252" cy="104.983" r="0.558333" fill="white" stroke="#526168" stroke-width="0.558333" stroke-linejoin="round"/>
<circle cx="64.4751" cy="104.983" r="0.558333" fill="white" stroke="#526168" stroke-width="0.558333" stroke-linejoin="round"/>
<circle cx="72.8501" cy="101.633" r="0.558333" fill="white" stroke="#526168" stroke-width="0.558333" stroke-linejoin="round"/>
<circle cx="69.5" cy="101.633" r="0.558333" fill="white" stroke="#526168" stroke-width="0.558333" stroke-linejoin="round"/>
<circle cx="66.1501" cy="101.633" r="0.558333" fill="white" stroke="#526168" stroke-width="0.558333" stroke-linejoin="round"/>
<circle cx="74.5251" cy="102.75" r="0.558333" fill="white" stroke="#526168" stroke-width="0.558333" stroke-linejoin="round"/>
<circle cx="71.175" cy="102.75" r="0.558333" fill="white" stroke="#526168" stroke-width="0.558333" stroke-linejoin="round"/>
<circle cx="67.8252" cy="102.75" r="0.558333" fill="white" stroke="#526168" stroke-width="0.558333" stroke-linejoin="round"/>
<circle cx="64.4751" cy="102.75" r="0.558333" fill="white" stroke="#526168" stroke-width="0.558333" stroke-linejoin="round"/>
<circle cx="69.5001" cy="41.3333" r="13.4" fill="white" stroke="#526168" stroke-width="0.558333" stroke-linejoin="round"/>
<circle cx="69.4999" cy="41.3333" r="11.725" fill="white" stroke="#526168" stroke-width="1.11667" stroke-linejoin="round"/>
<circle cx="69.4999" cy="90.4667" r="3.90833" fill="white" stroke="#526168" stroke-width="1.11667" stroke-linejoin="round"/>
<circle cx="69.4999" cy="90.4667" r="2.23333" fill="white" stroke="#526168" stroke-width="0.558333" stroke-linejoin="round"/>
<path d="M78.2067 37.5538C77.2043 35.2446 75.3256 33.4282 72.984 32.5042" stroke="#526168" stroke-width="1.11667" stroke-linejoin="round"/>
<path d="M65.2974 47.9241C66.1629 48.476 67.1287 48.852 68.1395 49.0307C69.1503 49.2094 70.1865 49.1872 71.1887 48.9654" stroke="#526168" stroke-width="0.558333" stroke-linejoin="round"/>
<path d="M73.9375 47.7683C75.1393 46.9396 76.0849 45.7909 76.6674 44.4524" stroke="#526168" stroke-width="0.558333" stroke-linejoin="round"/>
<path d="M61.7039 40.7666C61.6447 41.5817 61.7136 42.401 61.9082 43.1947" stroke="#526168" stroke-width="1.11667" stroke-linejoin="round"/>
<path d="M62.7883 34.6217C61.0083 36.4017 60.0083 38.816 60.0083 41.3333" stroke="#526168" stroke-width="0.558333" stroke-linejoin="round"/>
</svg>
