<svg width="67" height="101" viewBox="0 0 67 101" fill="none" xmlns="http://www.w3.org/2000/svg">
<path d="M47.2363 29.8297H64.6429V100H47.2363V29.8297Z" fill="white" stroke="black" stroke-width="1.08791" stroke-linejoin="round"/>
<path d="M34.7253 17.8626H37.9891V54.8517H34.7253V17.8626Z" fill="white" stroke="black" stroke-width="1.08791" stroke-linejoin="round"/>
<path d="M35.8132 17.8626L38.121 20.1704L11.9659 46.3256L9.65805 44.0178L35.8132 17.8626Z" fill="white" stroke="black" stroke-width="1.08791" stroke-linejoin="round"/>
<path d="M37.989 17.8626L37.989 21.1264L1 21.1264L1 17.8626L37.989 17.8626Z" fill="white" stroke="black" stroke-width="1.08791" stroke-linejoin="round"/>
<path d="M49.4121 29.8297H62.4671V100H49.4121V29.8297Z" fill="white" stroke="black" stroke-width="0.543956" stroke-linejoin="round"/>
<path d="M50.5 29.8297H61.3791V100H50.5V29.8297Z" fill="white" stroke="black" stroke-width="0.543956" stroke-linejoin="round"/>
<path d="M47.2363 29.8297H64.6429V32.0055H47.2363V29.8297Z" fill="white" stroke="black" stroke-width="1.08791" stroke-linejoin="round"/>
<path d="M25.478 5.89561C25.478 3.79268 27.1828 2.08791 29.2857 2.08791H60.8352C62.9381 2.08791 64.6429 3.79268 64.6429 5.89561V8.07143H25.478V5.89561Z" fill="white" stroke="black" stroke-width="1.08791" stroke-linejoin="round"/>
<path d="M42.3406 2.08791H52.1318V5.89561H42.3406V2.08791Z" fill="white" stroke="black" stroke-width="1.08791" stroke-linejoin="round"/>
<path d="M30.9175 17.1255L32.9001 15.1429L40.9956 23.2384L39.013 25.221L30.9175 17.1255Z" fill="white" stroke="black" stroke-width="1.08791" stroke-linejoin="round"/>
<path d="M25.478 8.07143H64.6429V29.8297H47.2363L25.478 8.07143Z" fill="white" stroke="black" stroke-width="1.08791" stroke-linejoin="round"/>
<path d="M32.5496 10.2473H61.9232V11.3352H32.5496V10.2473Z" fill="white" stroke="black" stroke-width="0.543956" stroke-linejoin="round"/>
<path d="M49.9561 26.5659H61.9231V27.6538H49.9561V26.5659Z" fill="white" stroke="black" stroke-width="0.543956" stroke-linejoin="round"/>
<path d="M63.5549 6.43956H65.7308V34.1813H63.5549V6.43956Z" fill="white" stroke="black" stroke-width="0.543956" stroke-linejoin="round"/>
<path d="M54.3076 1.54396C54.3076 1.24354 54.5512 1 54.8516 1H59.2032C59.5036 1 59.7472 1.24354 59.7472 1.54396C59.7472 1.84437 59.5036 2.08791 59.2032 2.08791H54.8516C54.5512 2.08791 54.3076 1.84437 54.3076 1.54396Z" fill="white" stroke="black" stroke-width="0.543956" stroke-linejoin="round"/>
<path d="M31.4614 1.54396C31.4614 1.24354 31.705 1 32.0054 1H33.6372C33.9377 1 34.1812 1.24354 34.1812 1.54396C34.1812 1.84437 33.9377 2.08791 33.6373 2.08791H32.0054C31.705 2.08791 31.4614 1.84437 31.4614 1.54396Z" fill="white" stroke="black" stroke-width="0.543956" stroke-linejoin="round"/>
</svg>
