<svg width="140" height="140" viewBox="0 0 140 140" fill="none" xmlns="http://www.w3.org/2000/svg">
<path d="M14 25.1413C14 21.7496 16.7496 19 20.1413 19H120.859C124.25 19 127 21.7496 127 25.1413V107.435H14V25.1413Z" fill="white" stroke="black" stroke-width="1.22826" stroke-linejoin="round"/>
<path d="M14 111.734C14 115.125 16.7496 117.875 20.1413 117.875H120.859C124.25 117.875 127 115.125 127 111.734V107.435H14V111.734Z" fill="white" stroke="black" stroke-width="1.22826" stroke-linejoin="round"/>
<path d="M90.1523 19H91.3806V107.435H90.1523V19Z" fill="white" stroke="black" stroke-width="0.61413" stroke-linejoin="round"/>
<path d="M14 107.435H127V109.277H14V107.435Z" fill="white" stroke="black" stroke-width="0.61413" stroke-linejoin="round"/>
<path d="M31.1958 30.6685C31.1958 29.651 32.0207 28.8261 33.0382 28.8261H71.1143C72.1318 28.8261 72.9567 29.651 72.9567 30.6685V57.6902C72.9567 58.7077 72.1318 59.5326 71.1143 59.5326H33.0382C32.0207 59.5326 31.1958 58.7077 31.1958 57.6902V30.6685Z" fill="white" stroke="black" stroke-width="1.22826" stroke-linejoin="round"/>
<path d="M51.4619 24.5272C51.4619 23.8488 52.0118 23.2989 52.6902 23.2989H60.0597C60.7381 23.2989 61.288 23.8488 61.288 24.5272C61.288 25.2055 60.7381 25.7554 60.0597 25.7554H52.6902C52.0118 25.7554 51.4619 25.2055 51.4619 24.5272Z" fill="white" stroke="black" stroke-width="0.61413" stroke-linejoin="round"/>
<path d="M96.9077 38.6522C96.9077 37.9738 97.4576 37.4239 98.136 37.4239H120.245C120.923 37.4239 121.473 37.9738 121.473 38.6522C121.473 39.3305 120.923 39.8804 120.245 39.8804H98.136C97.4576 39.8804 96.9077 39.3305 96.9077 38.6522Z" fill="white" stroke="black" stroke-width="0.61413" stroke-linejoin="round"/>
<path d="M33.0381 66.288C33.0381 65.2705 33.863 64.4456 34.8805 64.4456H39.7935C40.811 64.4456 41.6359 65.2705 41.6359 66.288V71.2011C41.6359 72.2186 40.811 73.0435 39.7935 73.0435H34.8805C33.863 73.0435 33.0381 72.2186 33.0381 71.2011V66.288Z" fill="white" stroke="black" stroke-width="0.61413" stroke-linejoin="round"/>
<path d="M33.0381 76.1141C33.0381 75.0966 33.863 74.2717 34.8805 74.2717H39.7935C40.811 74.2717 41.6359 75.0966 41.6359 76.1141V81.0272C41.6359 82.0447 40.811 82.8696 39.7935 82.8696H34.8805C33.863 82.8696 33.0381 82.0447 33.0381 81.0272V76.1141Z" fill="white" stroke="black" stroke-width="0.61413" stroke-linejoin="round"/>
<path d="M33.0381 85.9402C33.0381 84.9227 33.863 84.0978 34.8805 84.0978H39.7935C40.811 84.0978 41.6359 84.9227 41.6359 85.9402V90.8533C41.6359 91.8708 40.811 92.6957 39.7935 92.6957H34.8805C33.863 92.6957 33.0381 91.8708 33.0381 90.8533V85.9402Z" fill="white" stroke="black" stroke-width="0.61413" stroke-linejoin="round"/>
<path d="M33.0381 95.7663C33.0381 94.7488 33.863 93.9239 34.8805 93.9239H39.7935C40.811 93.9239 41.6359 94.7488 41.6359 95.7663V100.679C41.6359 101.697 40.811 102.522 39.7935 102.522H34.8805C33.863 102.522 33.0381 101.697 33.0381 100.679V95.7663Z" fill="white" stroke="black" stroke-width="0.61413" stroke-linejoin="round"/>
<path d="M42.8643 66.288C42.8643 65.2705 43.6891 64.4456 44.7066 64.4456H49.6197C50.6372 64.4456 51.4621 65.2705 51.4621 66.288V71.2011C51.4621 72.2186 50.6372 73.0435 49.6197 73.0435H44.7066C43.6891 73.0435 42.8643 72.2186 42.8643 71.2011V66.288Z" fill="white" stroke="black" stroke-width="0.61413" stroke-linejoin="round"/>
<path d="M42.8643 76.1141C42.8643 75.0966 43.6891 74.2717 44.7066 74.2717H49.6197C50.6372 74.2717 51.4621 75.0966 51.4621 76.1141V81.0272C51.4621 82.0447 50.6372 82.8696 49.6197 82.8696H44.7066C43.6891 82.8696 42.8643 82.0447 42.8643 81.0272V76.1141Z" fill="white" stroke="black" stroke-width="0.61413" stroke-linejoin="round"/>
<path d="M42.8643 85.9402C42.8643 84.9227 43.6891 84.0978 44.7066 84.0978H49.6197C50.6372 84.0978 51.4621 84.9227 51.4621 85.9402V90.8533C51.4621 91.8708 50.6372 92.6957 49.6197 92.6957H44.7066C43.6891 92.6957 42.8643 91.8708 42.8643 90.8533V85.9402Z" fill="white" stroke="black" stroke-width="0.61413" stroke-linejoin="round"/>
<path d="M42.8643 95.7663C42.8643 94.7488 43.6891 93.9239 44.7066 93.9239H49.6197C50.6372 93.9239 51.4621 94.7488 51.4621 95.7663V100.679C51.4621 101.697 50.6372 102.522 49.6197 102.522H44.7066C43.6891 102.522 42.8643 101.697 42.8643 100.679V95.7663Z" fill="white" stroke="black" stroke-width="0.61413" stroke-linejoin="round"/>
<path d="M52.6904 66.288C52.6904 65.2705 53.5153 64.4456 54.5328 64.4456H59.4459C60.4634 64.4456 61.2883 65.2705 61.2883 66.288V71.2011C61.2883 72.2186 60.4634 73.0435 59.4459 73.0435H54.5328C53.5153 73.0435 52.6904 72.2186 52.6904 71.2011V66.288Z" fill="white" stroke="black" stroke-width="0.61413" stroke-linejoin="round"/>
<path d="M52.6904 76.1141C52.6904 75.0966 53.5153 74.2717 54.5328 74.2717H59.4459C60.4634 74.2717 61.2883 75.0966 61.2883 76.1141V81.0272C61.2883 82.0447 60.4634 82.8696 59.4459 82.8696H54.5328C53.5153 82.8696 52.6904 82.0447 52.6904 81.0272V76.1141Z" fill="white" stroke="black" stroke-width="0.61413" stroke-linejoin="round"/>
<path d="M52.6904 85.9402C52.6904 84.9227 53.5153 84.0978 54.5328 84.0978H59.4459C60.4634 84.0978 61.2883 84.9227 61.2883 85.9402V90.8533C61.2883 91.8708 60.4634 92.6957 59.4459 92.6957H54.5328C53.5153 92.6957 52.6904 91.8708 52.6904 90.8533V85.9402Z" fill="white" stroke="black" stroke-width="0.61413" stroke-linejoin="round"/>
<path d="M52.6904 95.7663C52.6904 94.7488 53.5153 93.9239 54.5328 93.9239H59.4459C60.4634 93.9239 61.2883 94.7488 61.2883 95.7663V100.679C61.2883 101.697 60.4634 102.522 59.4459 102.522H54.5328C53.5153 102.522 52.6904 101.697 52.6904 100.679V95.7663Z" fill="white" stroke="black" stroke-width="0.61413" stroke-linejoin="round"/>
<path d="M62.5161 66.288C62.5161 65.2705 63.341 64.4456 64.3585 64.4456H69.2715C70.2891 64.4456 71.1139 65.2705 71.1139 66.288V71.2011C71.1139 72.2186 70.2891 73.0435 69.2715 73.0435H64.3585C63.341 73.0435 62.5161 72.2186 62.5161 71.2011V66.288Z" fill="white" stroke="black" stroke-width="0.61413" stroke-linejoin="round"/>
<path d="M62.5161 76.1141C62.5161 75.0966 63.341 74.2717 64.3585 74.2717H69.2715C70.2891 74.2717 71.1139 75.0966 71.1139 76.1141V90.8533C71.1139 91.8708 70.2891 92.6957 69.2715 92.6957H64.3585C63.341 92.6957 62.5161 91.8708 62.5161 90.8533V76.1141Z" fill="white" stroke="black" stroke-width="0.61413" stroke-linejoin="round"/>
<path d="M62.5161 95.7663C62.5161 94.7488 63.341 93.9239 64.3585 93.9239H69.2715C70.2891 93.9239 71.1139 94.7488 71.1139 95.7663V100.679C71.1139 101.697 70.2891 102.522 69.2715 102.522H64.3585C63.341 102.522 62.5161 101.697 62.5161 100.679V95.7663Z" fill="white" stroke="black" stroke-width="0.61413" stroke-linejoin="round"/>
<path d="M33.0381 31.2826C33.0381 30.9434 33.313 30.6685 33.6522 30.6685H70.5C70.8392 30.6685 71.1142 30.9434 71.1142 31.2826V57.0761C71.1142 57.4153 70.8392 57.6902 70.5 57.6902H33.6522C33.313 57.6902 33.0381 57.4153 33.0381 57.0761V31.2826Z" fill="white" stroke="black" stroke-width="0.61413" stroke-linejoin="round"/>
<path d="M33.0381 31.2826C33.0381 30.9434 33.313 30.6685 33.6522 30.6685H70.5C70.8392 30.6685 71.1142 30.9434 71.1142 31.2826V32.5109C71.1142 32.85 70.8392 33.125 70.5 33.125H33.6522C33.313 33.125 33.0381 32.85 33.0381 32.5109V31.2826Z" fill="white" stroke="black" stroke-width="0.61413" stroke-linejoin="round"/>
<path d="M96.9077 50.9348C96.9077 49.2389 98.2825 47.8641 99.9784 47.8641H118.402C120.098 47.8641 121.473 49.2389 121.473 50.9348V75.5C121.473 77.1959 120.098 78.5707 118.402 78.5707H99.9784C98.2825 78.5707 96.9077 77.1959 96.9077 75.5V50.9348Z" fill="white" stroke="black" stroke-width="1.22826" stroke-linejoin="round"/>
<path d="M98.75 51.5489C98.75 50.5314 99.5749 49.7065 100.592 49.7065H117.788C118.806 49.7065 119.63 50.5314 119.63 51.5489V74.8859C119.63 75.9034 118.806 76.7283 117.788 76.7283H100.592C99.5749 76.7283 98.75 75.9034 98.75 74.8859V51.5489Z" fill="white" stroke="black" stroke-width="0.61413" stroke-linejoin="round"/>
<path d="M101.821 60.1467C101.821 59.1292 102.646 58.3044 103.663 58.3044H114.718C115.735 58.3044 116.56 59.1292 116.56 60.1467V71.8152C116.56 72.8327 115.735 73.6576 114.718 73.6576H103.663C102.646 73.6576 101.821 72.8327 101.821 71.8152V60.1467Z" fill="white" stroke="black" stroke-width="0.61413" stroke-linejoin="round"/>
<path d="M103.049 61.375C103.049 61.0358 103.324 60.7609 103.663 60.7609H114.717C115.056 60.7609 115.331 61.0358 115.331 61.375V71.8152C115.331 72.1544 115.056 72.4293 114.717 72.4293H103.663C103.324 72.4293 103.049 72.1544 103.049 71.8152V61.375Z" fill="white" stroke="black" stroke-width="0.61413" stroke-linejoin="round"/>
<circle cx="47.1632" cy="24.5272" r="1.84239" fill="white" stroke="black" stroke-width="0.61413" stroke-linejoin="round"/>
</svg>
