<svg width="115" height="101" viewBox="0 0 115 101" fill="none" xmlns="http://www.w3.org/2000/svg">
<path d="M1 7.1413C1 3.74955 3.74956 1 7.1413 1H107.859C111.25 1 114 3.74956 114 7.1413V89.4348H1V7.1413Z" fill="white" stroke="black" stroke-width="1.22826" stroke-linejoin="round"/>
<path d="M1 93.7337C1 97.1254 3.74956 99.875 7.1413 99.875H107.859C111.25 99.875 114 97.1254 114 93.7337V89.4348H1V93.7337Z" fill="white" stroke="black" stroke-width="1.22826" stroke-linejoin="round"/>
<path d="M77.1523 1H78.3806V89.4348H77.1523V1Z" fill="white" stroke="black" stroke-width="0.61413" stroke-linejoin="round"/>
<path d="M1 89.4348H114V91.2772H1V89.4348Z" fill="white" stroke="black" stroke-width="0.61413" stroke-linejoin="round"/>
<path d="M18.1958 12.6685C18.1958 11.651 19.0207 10.8261 20.0382 10.8261H58.1143C59.1318 10.8261 59.9567 11.651 59.9567 12.6685V39.6902C59.9567 40.7077 59.1318 41.5326 58.1143 41.5326H20.0382C19.0207 41.5326 18.1958 40.7077 18.1958 39.6902V12.6685Z" fill="white" stroke="black" stroke-width="1.22826" stroke-linejoin="round"/>
<path d="M38.4619 6.52717C38.4619 5.84882 39.0118 5.29891 39.6902 5.29891H47.0597C47.7381 5.29891 48.288 5.84882 48.288 6.52717C48.288 7.20552 47.7381 7.75543 47.0597 7.75543H39.6902C39.0118 7.75543 38.4619 7.20552 38.4619 6.52717Z" fill="white" stroke="black" stroke-width="0.61413" stroke-linejoin="round"/>
<path d="M83.9077 20.6522C83.9077 19.9738 84.4576 19.4239 85.136 19.4239H107.245C107.923 19.4239 108.473 19.9738 108.473 20.6522C108.473 21.3305 107.923 21.8804 107.245 21.8804H85.136C84.4576 21.8804 83.9077 21.3305 83.9077 20.6522Z" fill="white" stroke="black" stroke-width="0.61413" stroke-linejoin="round"/>
<path d="M20.0381 48.288C20.0381 47.2705 20.863 46.4456 21.8805 46.4456H26.7935C27.811 46.4456 28.6359 47.2705 28.6359 48.288V53.2011C28.6359 54.2186 27.811 55.0435 26.7935 55.0435H21.8805C20.863 55.0435 20.0381 54.2186 20.0381 53.2011V48.288Z" fill="white" stroke="black" stroke-width="0.61413" stroke-linejoin="round"/>
<path d="M20.0381 58.1141C20.0381 57.0966 20.863 56.2717 21.8805 56.2717H26.7935C27.811 56.2717 28.6359 57.0966 28.6359 58.1141V63.0272C28.6359 64.0447 27.811 64.8696 26.7935 64.8696H21.8805C20.863 64.8696 20.0381 64.0447 20.0381 63.0272V58.1141Z" fill="white" stroke="black" stroke-width="0.61413" stroke-linejoin="round"/>
<path d="M20.0381 67.9402C20.0381 66.9227 20.863 66.0978 21.8805 66.0978H26.7935C27.811 66.0978 28.6359 66.9227 28.6359 67.9402V72.8533C28.6359 73.8708 27.811 74.6957 26.7935 74.6957H21.8805C20.863 74.6957 20.0381 73.8708 20.0381 72.8533V67.9402Z" fill="white" stroke="black" stroke-width="0.61413" stroke-linejoin="round"/>
<path d="M20.0381 77.7663C20.0381 76.7488 20.863 75.9239 21.8805 75.9239H26.7935C27.811 75.9239 28.6359 76.7488 28.6359 77.7663V82.6794C28.6359 83.6969 27.811 84.5217 26.7935 84.5217H21.8805C20.863 84.5217 20.0381 83.6969 20.0381 82.6794V77.7663Z" fill="white" stroke="black" stroke-width="0.61413" stroke-linejoin="round"/>
<path d="M29.8643 48.288C29.8643 47.2705 30.6891 46.4456 31.7066 46.4456H36.6197C37.6372 46.4456 38.4621 47.2705 38.4621 48.288V53.2011C38.4621 54.2186 37.6372 55.0435 36.6197 55.0435H31.7066C30.6891 55.0435 29.8643 54.2186 29.8643 53.2011V48.288Z" fill="white" stroke="black" stroke-width="0.61413" stroke-linejoin="round"/>
<path d="M29.8643 58.1141C29.8643 57.0966 30.6891 56.2717 31.7066 56.2717H36.6197C37.6372 56.2717 38.4621 57.0966 38.4621 58.1141V63.0272C38.4621 64.0447 37.6372 64.8696 36.6197 64.8696H31.7066C30.6891 64.8696 29.8643 64.0447 29.8643 63.0272V58.1141Z" fill="white" stroke="black" stroke-width="0.61413" stroke-linejoin="round"/>
<path d="M29.8643 67.9402C29.8643 66.9227 30.6891 66.0978 31.7066 66.0978H36.6197C37.6372 66.0978 38.4621 66.9227 38.4621 67.9402V72.8533C38.4621 73.8708 37.6372 74.6957 36.6197 74.6957H31.7066C30.6891 74.6957 29.8643 73.8708 29.8643 72.8533V67.9402Z" fill="white" stroke="black" stroke-width="0.61413" stroke-linejoin="round"/>
<path d="M29.8643 77.7663C29.8643 76.7488 30.6891 75.9239 31.7066 75.9239H36.6197C37.6372 75.9239 38.4621 76.7488 38.4621 77.7663V82.6794C38.4621 83.6969 37.6372 84.5217 36.6197 84.5217H31.7066C30.6891 84.5217 29.8643 83.6969 29.8643 82.6794V77.7663Z" fill="white" stroke="black" stroke-width="0.61413" stroke-linejoin="round"/>
<path d="M39.6904 48.288C39.6904 47.2705 40.5153 46.4456 41.5328 46.4456H46.4459C47.4634 46.4456 48.2883 47.2705 48.2883 48.288V53.2011C48.2883 54.2186 47.4634 55.0435 46.4459 55.0435H41.5328C40.5153 55.0435 39.6904 54.2186 39.6904 53.2011V48.288Z" fill="white" stroke="black" stroke-width="0.61413" stroke-linejoin="round"/>
<path d="M39.6904 58.1141C39.6904 57.0966 40.5153 56.2717 41.5328 56.2717H46.4459C47.4634 56.2717 48.2883 57.0966 48.2883 58.1141V63.0272C48.2883 64.0447 47.4634 64.8696 46.4459 64.8696H41.5328C40.5153 64.8696 39.6904 64.0447 39.6904 63.0272V58.1141Z" fill="white" stroke="black" stroke-width="0.61413" stroke-linejoin="round"/>
<path d="M39.6904 67.9402C39.6904 66.9227 40.5153 66.0978 41.5328 66.0978H46.4459C47.4634 66.0978 48.2883 66.9227 48.2883 67.9402V72.8533C48.2883 73.8708 47.4634 74.6957 46.4459 74.6957H41.5328C40.5153 74.6957 39.6904 73.8708 39.6904 72.8533V67.9402Z" fill="white" stroke="black" stroke-width="0.61413" stroke-linejoin="round"/>
<path d="M39.6904 77.7663C39.6904 76.7488 40.5153 75.9239 41.5328 75.9239H46.4459C47.4634 75.9239 48.2883 76.7488 48.2883 77.7663V82.6794C48.2883 83.6969 47.4634 84.5217 46.4459 84.5217H41.5328C40.5153 84.5217 39.6904 83.6969 39.6904 82.6794V77.7663Z" fill="white" stroke="black" stroke-width="0.61413" stroke-linejoin="round"/>
<path d="M49.5161 48.288C49.5161 47.2705 50.341 46.4456 51.3585 46.4456H56.2715C57.2891 46.4456 58.1139 47.2705 58.1139 48.288V53.2011C58.1139 54.2186 57.2891 55.0435 56.2715 55.0435H51.3585C50.341 55.0435 49.5161 54.2186 49.5161 53.2011V48.288Z" fill="white" stroke="black" stroke-width="0.61413" stroke-linejoin="round"/>
<path d="M49.5161 58.1141C49.5161 57.0966 50.341 56.2717 51.3585 56.2717H56.2715C57.2891 56.2717 58.1139 57.0966 58.1139 58.1141V72.8533C58.1139 73.8708 57.2891 74.6957 56.2715 74.6957H51.3585C50.341 74.6957 49.5161 73.8708 49.5161 72.8533V58.1141Z" fill="white" stroke="black" stroke-width="0.61413" stroke-linejoin="round"/>
<path d="M49.5161 77.7663C49.5161 76.7488 50.341 75.9239 51.3585 75.9239H56.2715C57.2891 75.9239 58.1139 76.7488 58.1139 77.7663V82.6794C58.1139 83.6969 57.2891 84.5217 56.2715 84.5217H51.3585C50.341 84.5217 49.5161 83.6969 49.5161 82.6794V77.7663Z" fill="white" stroke="black" stroke-width="0.61413" stroke-linejoin="round"/>
<path d="M20.0381 13.2826C20.0381 12.9434 20.313 12.6685 20.6522 12.6685H57.5C57.8392 12.6685 58.1142 12.9434 58.1142 13.2826V39.0761C58.1142 39.4153 57.8392 39.6902 57.5 39.6902H20.6522C20.313 39.6902 20.0381 39.4153 20.0381 39.0761V13.2826Z" fill="white" stroke="black" stroke-width="0.61413" stroke-linejoin="round"/>
<path d="M20.0381 13.2826C20.0381 12.9434 20.313 12.6685 20.6522 12.6685H57.5C57.8392 12.6685 58.1142 12.9434 58.1142 13.2826V14.5109C58.1142 14.85 57.8392 15.125 57.5 15.125H20.6522C20.313 15.125 20.0381 14.85 20.0381 14.5109V13.2826Z" fill="white" stroke="black" stroke-width="0.61413" stroke-linejoin="round"/>
<path d="M83.9077 32.9348C83.9077 31.2389 85.2825 29.8641 86.9784 29.8641H105.402C107.098 29.8641 108.473 31.2389 108.473 32.9348V57.5C108.473 59.1959 107.098 60.5707 105.402 60.5707H86.9784C85.2825 60.5707 83.9077 59.1959 83.9077 57.5V32.9348Z" fill="white" stroke="black" stroke-width="1.22826" stroke-linejoin="round"/>
<path d="M85.75 33.5489C85.75 32.5314 86.5749 31.7065 87.5924 31.7065H104.788C105.806 31.7065 106.63 32.5314 106.63 33.5489V56.8859C106.63 57.9034 105.806 58.7283 104.788 58.7283H87.5924C86.5749 58.7283 85.75 57.9034 85.75 56.8859V33.5489Z" fill="white" stroke="black" stroke-width="0.61413" stroke-linejoin="round"/>
<path d="M88.8208 42.1467C88.8208 41.1292 89.6457 40.3044 90.6632 40.3044H101.718C102.735 40.3044 103.56 41.1292 103.56 42.1467V53.8152C103.56 54.8327 102.735 55.6576 101.718 55.6576H90.6632C89.6457 55.6576 88.8208 54.8327 88.8208 53.8152V42.1467Z" fill="white" stroke="black" stroke-width="0.61413" stroke-linejoin="round"/>
<path d="M90.0488 43.375C90.0488 43.0358 90.3238 42.7609 90.663 42.7609H101.717C102.056 42.7609 102.331 43.0358 102.331 43.375V53.8152C102.331 54.1544 102.056 54.4293 101.717 54.4293H90.663C90.3238 54.4293 90.0488 54.1544 90.0488 53.8152V43.375Z" fill="white" stroke="black" stroke-width="0.61413" stroke-linejoin="round"/>
<circle cx="34.1632" cy="6.52717" r="1.84239" fill="white" stroke="black" stroke-width="0.61413" stroke-linejoin="round"/>
</svg>
