<svg width="57" height="103" viewBox="0 0 57 103" fill="none" xmlns="http://www.w3.org/2000/svg">
<path d="M2.14136 8.98871C2.14136 4.57667 5.71802 1 10.1301 1H45.5086C49.9206 1 53.4973 4.57666 53.4973 8.9887V92.2994C53.4973 96.7115 49.9206 100.288 45.5086 100.288H10.1301C5.71802 100.288 2.14136 96.7115 2.14136 92.2994V8.98871Z" fill="white" stroke="black" stroke-width="1.14124" stroke-linejoin="round"/>
<path d="M6.7063 69.4746C6.7063 67.5837 8.23915 66.0508 10.13 66.0508H45.5086C47.3994 66.0508 48.9323 67.5837 48.9323 69.4746V92.2994C48.9323 94.1903 47.3994 95.7232 45.5086 95.7232H10.13C8.23916 95.7232 6.7063 94.1903 6.7063 92.2994V69.4746Z" fill="white" stroke="black" stroke-width="0.570621" stroke-linejoin="round"/>
<path d="M2.14136 62.0565H53.4973V63.1977H2.14136V62.0565Z" fill="white" stroke="black" stroke-width="0.570621" stroke-linejoin="round"/>
<path d="M6.7063 8.9887C6.7063 7.09783 8.23915 5.56497 10.13 5.56497H45.5086C47.3994 5.56497 48.9323 7.09783 48.9323 8.9887V55.7797C48.9323 57.6705 47.3994 59.2034 45.5086 59.2034H10.13C8.23916 59.2034 6.7063 57.6705 6.7063 55.7797V8.9887Z" fill="white" stroke="black" stroke-width="1.14124" stroke-linejoin="round"/>
<path d="M8.98877 9.5593C8.98877 8.61387 9.7552 7.84744 10.7006 7.84744H44.9379C45.8834 7.84744 46.6498 8.61387 46.6498 9.55931V55.209C46.6498 56.1545 45.8834 56.9209 44.9379 56.9209H10.7006C9.7552 56.9209 8.98877 56.1545 8.98877 55.209V9.5593Z" fill="white" stroke="black" stroke-width="0.570621" stroke-linejoin="round"/>
<path d="M10.1299 70.6158C10.1299 69.9855 10.6408 69.4746 11.2711 69.4746H19.2598C19.8901 69.4746 20.4011 69.9855 20.4011 70.6158V72.3277C20.4011 72.958 19.8901 73.4689 19.2598 73.4689H11.2711C10.6408 73.4689 10.1299 72.958 10.1299 72.3277V70.6158Z" fill="white" stroke="black" stroke-width="0.570621" stroke-linejoin="round"/>
<path d="M22.6836 70.6158C22.6836 69.9855 23.1945 69.4745 23.8248 69.4745H31.8135C32.4438 69.4745 32.9548 69.9855 32.9548 70.6158V72.3277C32.9548 72.9579 32.4438 73.4689 31.8135 73.4689H23.8248C23.1945 73.4689 22.6836 72.9579 22.6836 72.3277V70.6158Z" fill="white" stroke="black" stroke-width="0.570621" stroke-linejoin="round"/>
<path d="M35.2373 70.6158C35.2373 69.9855 35.7483 69.4745 36.3785 69.4745H44.3672C44.9975 69.4745 45.5085 69.9855 45.5085 70.6158V72.3277C45.5085 72.9579 44.9975 73.4689 44.3672 73.4689H36.3785C35.7483 73.4689 35.2373 72.9579 35.2373 72.3277V70.6158Z" fill="white" stroke="black" stroke-width="0.570621" stroke-linejoin="round"/>
<path d="M10.1299 76.8926C10.1299 76.2623 10.6408 75.7514 11.2711 75.7514H19.2598C19.8901 75.7514 20.4011 76.2623 20.4011 76.8926V78.6045C20.4011 79.2348 19.8901 79.7457 19.2598 79.7457H11.2711C10.6408 79.7457 10.1299 79.2348 10.1299 78.6045V76.8926Z" fill="white" stroke="black" stroke-width="0.570621" stroke-linejoin="round"/>
<path d="M22.6836 76.8926C22.6836 76.2623 23.1945 75.7514 23.8248 75.7514H31.8135C32.4438 75.7514 32.9548 76.2623 32.9548 76.8926V78.6045C32.9548 79.2348 32.4438 79.7457 31.8135 79.7457H23.8248C23.1945 79.7457 22.6836 79.2348 22.6836 78.6045V76.8926Z" fill="white" stroke="black" stroke-width="0.570621" stroke-linejoin="round"/>
<path d="M35.2373 76.8926C35.2373 76.2623 35.7483 75.7514 36.3785 75.7514H44.3672C44.9975 75.7514 45.5085 76.2623 45.5085 76.8926V78.6045C45.5085 79.2348 44.9975 79.7457 44.3672 79.7457H36.3785C35.7483 79.7457 35.2373 79.2348 35.2373 78.6045V76.8926Z" fill="white" stroke="black" stroke-width="0.570621" stroke-linejoin="round"/>
<path d="M10.1299 83.1695C10.1299 82.5392 10.6408 82.0282 11.2711 82.0282H19.2598C19.8901 82.0282 20.4011 82.5392 20.4011 83.1695V84.8813C20.4011 85.5116 19.8901 86.0226 19.2598 86.0226H11.2711C10.6408 86.0226 10.1299 85.5116 10.1299 84.8813V83.1695Z" fill="white" stroke="black" stroke-width="0.570621" stroke-linejoin="round"/>
<path d="M22.6836 83.1695C22.6836 82.5392 23.1945 82.0282 23.8248 82.0282H31.8135C32.4438 82.0282 32.9548 82.5392 32.9548 83.1695V84.8813C32.9548 85.5116 32.4438 86.0226 31.8135 86.0226H23.8248C23.1945 86.0226 22.6836 85.5116 22.6836 84.8813V83.1695Z" fill="white" stroke="black" stroke-width="0.570621" stroke-linejoin="round"/>
<path d="M35.2373 83.1695C35.2373 82.5392 35.7483 82.0282 36.3785 82.0282H44.3672C44.9975 82.0282 45.5085 82.5392 45.5085 83.1695V84.8813C45.5085 85.5116 44.9975 86.0226 44.3672 86.0226H36.3785C35.7483 86.0226 35.2373 85.5116 35.2373 84.8813V83.1695Z" fill="white" stroke="black" stroke-width="0.570621" stroke-linejoin="round"/>
<path d="M10.1299 89.4463C10.1299 88.816 10.6408 88.3051 11.2711 88.3051H19.2598C19.8901 88.3051 20.4011 88.816 20.4011 89.4463V91.1582C20.4011 91.7885 19.8901 92.2994 19.2598 92.2994H11.2711C10.6408 92.2994 10.1299 91.7885 10.1299 91.1582V89.4463Z" fill="white" stroke="black" stroke-width="0.570621" stroke-linejoin="round"/>
<path d="M22.6836 89.4463C22.6836 88.816 23.1945 88.3051 23.8248 88.3051H31.8135C32.4438 88.3051 32.9548 88.816 32.9548 89.4463V91.1582C32.9548 91.7885 32.4438 92.2994 31.8135 92.2994H23.8248C23.1945 92.2994 22.6836 91.7885 22.6836 91.1582V89.4463Z" fill="white" stroke="black" stroke-width="0.570621" stroke-linejoin="round"/>
<path d="M35.2373 89.4463C35.2373 88.816 35.7483 88.3051 36.3785 88.3051H44.3672C44.9975 88.3051 45.5085 88.816 45.5085 89.4463V91.1582C45.5085 91.7885 44.9975 92.2994 44.3672 92.2994H36.3785C35.7483 92.2994 35.2373 91.7885 35.2373 91.1582V89.4463Z" fill="white" stroke="black" stroke-width="0.570621" stroke-linejoin="round"/>
<path d="M1 41.5141H2.14124V55.7797H1V41.5141Z" fill="white" stroke="black" stroke-width="0.570621" stroke-linejoin="round"/>
<path d="M20.4011 102C19.4556 102 18.6892 101.234 18.6892 100.288L36.9491 100.288C36.9491 101.234 36.1827 102 35.2372 102L20.4011 102Z" fill="white" stroke="black" stroke-width="1.14124" stroke-linejoin="round"/>
<path d="M53.4971 10.7006H55.2089V91.1582H53.4971V10.7006Z" fill="white" stroke="black" stroke-width="0.570621" stroke-linejoin="round"/>
<path d="M55.209 6.70621H56.3502V95.1525H55.209V6.70621Z" fill="white" stroke="black" stroke-width="0.570621" stroke-linejoin="round"/>
</svg>
