<svg width="140" height="140" viewBox="0 0 140 140" fill="none" xmlns="http://www.w3.org/2000/svg">
<path d="M43.1414 26.9887C43.1414 22.5767 46.718 19 51.1301 19H86.5086C90.9206 19 94.4973 22.5767 94.4973 26.9887V110.299C94.4973 114.711 90.9206 118.288 86.5086 118.288H51.1301C46.718 118.288 43.1414 114.711 43.1414 110.299V26.9887Z" fill="white" stroke="black" stroke-width="1.14124" stroke-linejoin="round"/>
<path d="M47.7063 87.4746C47.7063 85.5837 49.2392 84.0508 51.13 84.0508H86.5086C88.3994 84.0508 89.9323 85.5837 89.9323 87.4746V110.299C89.9323 112.19 88.3994 113.723 86.5086 113.723H51.13C49.2392 113.723 47.7063 112.19 47.7063 110.299V87.4746Z" fill="white" stroke="black" stroke-width="0.570621" stroke-linejoin="round"/>
<path d="M43.1414 80.0565H94.4973V81.1977H43.1414V80.0565Z" fill="white" stroke="black" stroke-width="0.570621" stroke-linejoin="round"/>
<path d="M47.7063 26.9887C47.7063 25.0978 49.2392 23.565 51.13 23.565H86.5086C88.3994 23.565 89.9323 25.0978 89.9323 26.9887V73.7797C89.9323 75.6705 88.3994 77.2034 86.5086 77.2034H51.13C49.2392 77.2034 47.7063 75.6705 47.7063 73.7797V26.9887Z" fill="white" stroke="black" stroke-width="1.14124" stroke-linejoin="round"/>
<path d="M49.9888 27.5593C49.9888 26.6139 50.7552 25.8474 51.7006 25.8474H85.9379C86.8834 25.8474 87.6498 26.6139 87.6498 27.5593V73.209C87.6498 74.1545 86.8834 74.9209 85.9379 74.9209H51.7006C50.7552 74.9209 49.9888 74.1545 49.9888 73.209V27.5593Z" fill="white" stroke="black" stroke-width="0.570621" stroke-linejoin="round"/>
<path d="M51.1299 88.6158C51.1299 87.9855 51.6408 87.4746 52.2711 87.4746H60.2598C60.8901 87.4746 61.4011 87.9855 61.4011 88.6158V90.3277C61.4011 90.958 60.8901 91.4689 60.2598 91.4689H52.2711C51.6408 91.4689 51.1299 90.958 51.1299 90.3277V88.6158Z" fill="white" stroke="black" stroke-width="0.570621" stroke-linejoin="round"/>
<path d="M63.6836 88.6158C63.6836 87.9855 64.1945 87.4745 64.8248 87.4745H72.8135C73.4438 87.4745 73.9548 87.9855 73.9548 88.6158V90.3277C73.9548 90.9579 73.4438 91.4689 72.8135 91.4689H64.8248C64.1945 91.4689 63.6836 90.9579 63.6836 90.3277V88.6158Z" fill="white" stroke="black" stroke-width="0.570621" stroke-linejoin="round"/>
<path d="M76.2373 88.6158C76.2373 87.9855 76.7483 87.4745 77.3785 87.4745H85.3672C85.9975 87.4745 86.5085 87.9855 86.5085 88.6158V90.3277C86.5085 90.9579 85.9975 91.4689 85.3672 91.4689H77.3785C76.7483 91.4689 76.2373 90.9579 76.2373 90.3277V88.6158Z" fill="white" stroke="black" stroke-width="0.570621" stroke-linejoin="round"/>
<path d="M51.1299 94.8926C51.1299 94.2623 51.6408 93.7514 52.2711 93.7514H60.2598C60.8901 93.7514 61.4011 94.2623 61.4011 94.8926V96.6045C61.4011 97.2348 60.8901 97.7457 60.2598 97.7457H52.2711C51.6408 97.7457 51.1299 97.2348 51.1299 96.6045V94.8926Z" fill="white" stroke="black" stroke-width="0.570621" stroke-linejoin="round"/>
<path d="M63.6836 94.8926C63.6836 94.2623 64.1945 93.7514 64.8248 93.7514H72.8135C73.4438 93.7514 73.9548 94.2623 73.9548 94.8926V96.6045C73.9548 97.2348 73.4438 97.7457 72.8135 97.7457H64.8248C64.1945 97.7457 63.6836 97.2348 63.6836 96.6045V94.8926Z" fill="white" stroke="black" stroke-width="0.570621" stroke-linejoin="round"/>
<path d="M76.2373 94.8926C76.2373 94.2623 76.7483 93.7514 77.3785 93.7514H85.3672C85.9975 93.7514 86.5085 94.2623 86.5085 94.8926V96.6045C86.5085 97.2348 85.9975 97.7457 85.3672 97.7457H77.3785C76.7483 97.7457 76.2373 97.2348 76.2373 96.6045V94.8926Z" fill="white" stroke="black" stroke-width="0.570621" stroke-linejoin="round"/>
<path d="M51.1299 101.169C51.1299 100.539 51.6408 100.028 52.2711 100.028H60.2598C60.8901 100.028 61.4011 100.539 61.4011 101.169V102.881C61.4011 103.512 60.8901 104.023 60.2598 104.023H52.2711C51.6408 104.023 51.1299 103.512 51.1299 102.881V101.169Z" fill="white" stroke="black" stroke-width="0.570621" stroke-linejoin="round"/>
<path d="M63.6836 101.169C63.6836 100.539 64.1945 100.028 64.8248 100.028H72.8135C73.4438 100.028 73.9548 100.539 73.9548 101.169V102.881C73.9548 103.512 73.4438 104.023 72.8135 104.023H64.8248C64.1945 104.023 63.6836 103.512 63.6836 102.881V101.169Z" fill="white" stroke="black" stroke-width="0.570621" stroke-linejoin="round"/>
<path d="M76.2373 101.169C76.2373 100.539 76.7483 100.028 77.3785 100.028H85.3672C85.9975 100.028 86.5085 100.539 86.5085 101.169V102.881C86.5085 103.512 85.9975 104.023 85.3672 104.023H77.3785C76.7483 104.023 76.2373 103.512 76.2373 102.881V101.169Z" fill="white" stroke="black" stroke-width="0.570621" stroke-linejoin="round"/>
<path d="M51.1299 107.446C51.1299 106.816 51.6408 106.305 52.2711 106.305H60.2598C60.8901 106.305 61.4011 106.816 61.4011 107.446V109.158C61.4011 109.788 60.8901 110.299 60.2598 110.299H52.2711C51.6408 110.299 51.1299 109.788 51.1299 109.158V107.446Z" fill="white" stroke="black" stroke-width="0.570621" stroke-linejoin="round"/>
<path d="M63.6836 107.446C63.6836 106.816 64.1945 106.305 64.8248 106.305H72.8135C73.4438 106.305 73.9548 106.816 73.9548 107.446V109.158C73.9548 109.788 73.4438 110.299 72.8135 110.299H64.8248C64.1945 110.299 63.6836 109.788 63.6836 109.158V107.446Z" fill="white" stroke="black" stroke-width="0.570621" stroke-linejoin="round"/>
<path d="M76.2373 107.446C76.2373 106.816 76.7483 106.305 77.3785 106.305H85.3672C85.9975 106.305 86.5085 106.816 86.5085 107.446V109.158C86.5085 109.788 85.9975 110.299 85.3672 110.299H77.3785C76.7483 110.299 76.2373 109.788 76.2373 109.158V107.446Z" fill="white" stroke="black" stroke-width="0.570621" stroke-linejoin="round"/>
<path d="M42 59.5141H43.1412V73.7797H42V59.5141Z" fill="white" stroke="black" stroke-width="0.570621" stroke-linejoin="round"/>
<path d="M61.4011 120C60.4556 120 59.6892 119.234 59.6892 118.288L77.9491 118.288C77.9491 119.234 77.1827 120 76.2372 120L61.4011 120Z" fill="white" stroke="black" stroke-width="1.14124" stroke-linejoin="round"/>
<path d="M94.4971 28.7006H96.2089V109.158H94.4971V28.7006Z" fill="white" stroke="black" stroke-width="0.570621" stroke-linejoin="round"/>
<path d="M96.209 24.7062H97.3502V113.153H96.209V24.7062Z" fill="white" stroke="black" stroke-width="0.570621" stroke-linejoin="round"/>
</svg>
