<svg width="68" height="103" viewBox="0 0 68 103" fill="none" xmlns="http://www.w3.org/2000/svg">
<path d="M1.53442 2.06879H66.7302V102H1.53442V2.06879Z" fill="white" stroke="black" stroke-width="1.06878" stroke-linejoin="round"/>
<path d="M1.53442 2.06879H66.7302V76.3492H1.53442V2.06879Z" fill="white" stroke="black" stroke-width="1.06878" stroke-linejoin="round"/>
<path d="M2.60327 2.06879H65.6615V76.3492H2.60327V2.06879Z" fill="white" stroke="black" stroke-width="0.534392" stroke-linejoin="round"/>
<path d="M5.27515 2.06879H62.9894V76.3492H5.27515V2.06879Z" fill="white" stroke="black" stroke-width="1.06878" stroke-linejoin="round"/>
<path d="M1 1.53439C1 1.23925 1.23926 1 1.53439 1H66.7302C67.0253 1 67.2645 1.23926 67.2645 1.53439V7.4127C67.2645 7.70784 67.0253 7.94709 66.7302 7.94709H1.53439C1.23925 7.94709 1 7.70784 1 7.4127V1.53439Z" fill="white" stroke="black" stroke-width="1.06878" stroke-linejoin="round"/>
<path d="M45.8889 13.291H58.7143V53.3704H45.8889V13.291Z" fill="white" stroke="black" stroke-width="1.06878" stroke-linejoin="round"/>
<path d="M47.4922 42.1481H57.1112V51.7672H47.4922V42.1481Z" fill="white" stroke="black" stroke-width="0.534392" stroke-linejoin="round"/>
<path d="M47.4922 14.8942H57.1112V24.5132H47.4922V14.8942Z" fill="white" stroke="black" stroke-width="0.534392" stroke-linejoin="round"/>
<path d="M48.5608 15.963H56.0423V23.4444H48.5608V15.963Z" fill="white" stroke="black" stroke-width="0.534392" stroke-linejoin="round"/>
<path d="M49.6296 32.5291C49.6296 32.234 49.8689 31.9947 50.164 31.9947H54.4392C54.7343 31.9947 54.9736 32.234 54.9736 32.5291V34.1323C54.9736 34.4274 54.7343 34.6667 54.4392 34.6667H50.164C49.8689 34.6667 49.6296 34.4274 49.6296 34.1323V32.5291Z" fill="white" stroke="black" stroke-width="0.534392" stroke-linejoin="round"/>
<path d="M46.9578 25.582H57.6456V24.5132H46.9578V25.582Z" fill="white" stroke="black" stroke-width="0.534392" stroke-linejoin="round"/>
<path d="M45.8889 41.0794H58.7143V40.0106H45.8889V41.0794Z" fill="white" stroke="black" stroke-width="0.534392" stroke-linejoin="round"/>
<path d="M50.6985 42.1481H53.9048V51.7672H50.6985V42.1481Z" stroke="black" stroke-width="0.534392" stroke-linejoin="round"/>
<path d="M47.4922 45.3545H57.1112V48.5608H47.4922V45.3545Z" stroke="black" stroke-width="0.534392" stroke-linejoin="round"/>
<path d="M47.4922 61.9206H57.1112V65.127H47.4922V61.9206Z" fill="white" stroke="black" stroke-width="1.06878" stroke-linejoin="round"/>
<path d="M9.55029 59.7831H19.1693V65.127H9.55029V59.7831Z" fill="white" stroke="black" stroke-width="1.06878" stroke-linejoin="round"/>
<path d="M25.0476 61.3862C25.0476 58.4349 27.4402 56.0423 30.3915 56.0423H35.7354C38.6868 56.0423 41.0794 58.4349 41.0794 61.3862V65.127H25.0476V61.3862Z" fill="white" stroke="black" stroke-width="1.06878" stroke-linejoin="round"/>
<path d="M25.0476 64.0582H41.0794V65.127H25.0476V64.0582Z" fill="white" stroke="black" stroke-width="0.534392" stroke-linejoin="round"/>
<path d="M9.55029 71.0053C9.55029 70.7101 9.78955 70.4709 10.0847 70.4709H18.6349C18.9301 70.4709 19.1693 70.7101 19.1693 71.0053C19.1693 71.3004 18.9301 71.5397 18.6349 71.5397H10.0847C9.78955 71.5397 9.55029 71.3004 9.55029 71.0053Z" fill="white" stroke="black" stroke-width="0.534392" stroke-linejoin="round"/>
<path d="M48.5608 62.9894H56.0423V64.0582H48.5608V62.9894Z" fill="white" stroke="black" stroke-width="0.534392" stroke-linejoin="round"/>
<path d="M9.55029 13.291H33.0635V36.8042H9.55029V13.291Z" fill="white" stroke="black" stroke-width="1.06878" stroke-linejoin="round"/>
<path d="M11.1536 14.8942H31.4604V35.201H11.1536V14.8942Z" fill="white" stroke="black" stroke-width="0.534392" stroke-linejoin="round"/>
<path d="M36.8042 26.1164H42.1481V36.8042H36.8042V26.1164Z" fill="white" stroke="black" stroke-width="1.06878" stroke-linejoin="round"/>
<path d="M37.873 26.1164H41.0794V36.8042H37.873V26.1164Z" fill="white" stroke="black" stroke-width="0.534392" stroke-linejoin="round"/>
<path d="M36.8042 27.7196H42.1481V28.7884H36.8042V27.7196Z" fill="white" stroke="black" stroke-width="0.534392" stroke-linejoin="round"/>
<path d="M1.53442 88.6402H66.7302V90.2434H1.53442V88.6402Z" fill="white" stroke="black" stroke-width="0.534392" stroke-linejoin="round"/>
</svg>
