<svg width="140" height="140" viewBox="0 0 140 140" fill="none" xmlns="http://www.w3.org/2000/svg">
<path d="M37.5344 20.0688H102.73V120H37.5344V20.0688Z" fill="white" stroke="black" stroke-width="1.06878" stroke-linejoin="round"/>
<path d="M37.5344 20.0688H102.73V94.3492H37.5344V20.0688Z" fill="white" stroke="black" stroke-width="1.06878" stroke-linejoin="round"/>
<path d="M38.6033 20.0688H101.661V94.3492H38.6033V20.0688Z" fill="white" stroke="black" stroke-width="0.534392" stroke-linejoin="round"/>
<path d="M41.2751 20.0688H98.9894V94.3492H41.2751V20.0688Z" fill="white" stroke="black" stroke-width="1.06878" stroke-linejoin="round"/>
<path d="M37 19.5344C37 19.2393 37.2393 19 37.5344 19H102.73C103.025 19 103.265 19.2393 103.265 19.5344V25.4127C103.265 25.7078 103.025 25.9471 102.73 25.9471H37.5344C37.2393 25.9471 37 25.7078 37 25.4127V19.5344Z" fill="white" stroke="black" stroke-width="1.06878" stroke-linejoin="round"/>
<path d="M81.8889 31.291H94.7143V71.3704H81.8889V31.291Z" fill="white" stroke="black" stroke-width="1.06878" stroke-linejoin="round"/>
<path d="M83.4922 60.1481H93.1112V69.7672H83.4922V60.1481Z" fill="white" stroke="black" stroke-width="0.534392" stroke-linejoin="round"/>
<path d="M83.4922 32.8942H93.1112V42.5132H83.4922V32.8942Z" fill="white" stroke="black" stroke-width="0.534392" stroke-linejoin="round"/>
<path d="M84.5608 33.963H92.0423V41.4444H84.5608V33.963Z" fill="white" stroke="black" stroke-width="0.534392" stroke-linejoin="round"/>
<path d="M85.6296 50.5291C85.6296 50.234 85.8689 49.9947 86.164 49.9947H90.4392C90.7343 49.9947 90.9736 50.234 90.9736 50.5291V52.1323C90.9736 52.4274 90.7343 52.6667 90.4392 52.6667H86.164C85.8689 52.6667 85.6296 52.4274 85.6296 52.1323V50.5291Z" fill="white" stroke="black" stroke-width="0.534392" stroke-linejoin="round"/>
<path d="M82.9578 43.582H93.6456V42.5132H82.9578V43.582Z" fill="white" stroke="black" stroke-width="0.534392" stroke-linejoin="round"/>
<path d="M81.8889 59.0794H94.7143V58.0106H81.8889V59.0794Z" fill="white" stroke="black" stroke-width="0.534392" stroke-linejoin="round"/>
<path d="M86.6985 60.1481H89.9048V69.7672H86.6985V60.1481Z" stroke="black" stroke-width="0.534392" stroke-linejoin="round"/>
<path d="M83.4922 63.3545H93.1112V66.5608H83.4922V63.3545Z" stroke="black" stroke-width="0.534392" stroke-linejoin="round"/>
<path d="M83.4922 79.9206H93.1112V83.127H83.4922V79.9206Z" fill="white" stroke="black" stroke-width="1.06878" stroke-linejoin="round"/>
<path d="M45.5503 77.7831H55.1693V83.127H45.5503V77.7831Z" fill="white" stroke="black" stroke-width="1.06878" stroke-linejoin="round"/>
<path d="M61.0476 79.3862C61.0476 76.4349 63.4402 74.0423 66.3915 74.0423H71.7354C74.6868 74.0423 77.0794 76.4349 77.0794 79.3862V83.127H61.0476V79.3862Z" fill="white" stroke="black" stroke-width="1.06878" stroke-linejoin="round"/>
<path d="M61.0476 82.0582H77.0794V83.127H61.0476V82.0582Z" fill="white" stroke="black" stroke-width="0.534392" stroke-linejoin="round"/>
<path d="M45.5503 89.0053C45.5503 88.7101 45.7895 88.4709 46.0847 88.4709H54.6349C54.9301 88.4709 55.1693 88.7101 55.1693 89.0053C55.1693 89.3004 54.9301 89.5397 54.6349 89.5397H46.0847C45.7895 89.5397 45.5503 89.3004 45.5503 89.0053Z" fill="white" stroke="black" stroke-width="0.534392" stroke-linejoin="round"/>
<path d="M84.5608 80.9894H92.0423V82.0582H84.5608V80.9894Z" fill="white" stroke="black" stroke-width="0.534392" stroke-linejoin="round"/>
<path d="M45.5503 31.291H69.0635V54.8042H45.5503V31.291Z" fill="white" stroke="black" stroke-width="1.06878" stroke-linejoin="round"/>
<path d="M47.1536 32.8942H67.4604V53.201H47.1536V32.8942Z" fill="white" stroke="black" stroke-width="0.534392" stroke-linejoin="round"/>
<path d="M72.8042 44.1164H78.1481V54.8042H72.8042V44.1164Z" fill="white" stroke="black" stroke-width="1.06878" stroke-linejoin="round"/>
<path d="M73.873 44.1164H77.0794V54.8042H73.873V44.1164Z" fill="white" stroke="black" stroke-width="0.534392" stroke-linejoin="round"/>
<path d="M72.8042 45.7196H78.1481V46.7884H72.8042V45.7196Z" fill="white" stroke="black" stroke-width="0.534392" stroke-linejoin="round"/>
<path d="M37.5344 106.64H102.73V108.243H37.5344V106.64Z" fill="white" stroke="black" stroke-width="0.534392" stroke-linejoin="round"/>
</svg>
