<svg width="132" height="93" viewBox="0 0 132 93" fill="none" xmlns="http://www.w3.org/2000/svg">
<path d="M1 1H131V92.2766H1V1Z" fill="white" stroke="black" stroke-width="1.38298" stroke-linejoin="round"/>
<path d="M1 1H34.1915V92.2766H1V1Z" fill="white" stroke="black" stroke-width="1.38298" stroke-linejoin="round"/>
<path d="M1 1H131V17.5957H1V1Z" fill="white" stroke="black" stroke-width="1.38298" stroke-linejoin="round"/>
<path d="M34.1914 88.8192H131V92.2766H34.1914V88.8192Z" fill="white" stroke="black" stroke-width="1.38298" stroke-linejoin="round"/>
<path d="M34.1914 17.5958H131V19.6702H34.1914V17.5958Z" fill="white" stroke="black" stroke-width="0.691489" stroke-linejoin="round"/>
<path d="M1 1H131V7.91489H1V1Z" fill="white" stroke="black" stroke-width="1.38298" stroke-linejoin="round"/>
<path d="M41.1064 29.3511C41.1064 28.2054 42.0352 27.2766 43.1809 27.2766H84.6703C85.816 27.2766 86.7447 28.2054 86.7447 29.3511V73.6064C86.7447 74.7521 85.816 75.6809 84.6703 75.6809H43.1809C42.0352 75.6809 41.1064 74.7521 41.1064 73.6064V29.3511Z" fill="white" stroke="black" stroke-width="1.38298" stroke-linejoin="round"/>
<path d="M99.1914 27.2766H124.085V75.6809H99.1914V27.2766Z" fill="white" stroke="black" stroke-width="1.38298" stroke-linejoin="round"/>
<path d="M99.1914 34.883H124.085V68.0745H99.1914V34.883Z" fill="white" stroke="black" stroke-width="1.38298" stroke-linejoin="round"/>
<path d="M99.1914 45.2553H124.085V57.7022H99.1914V45.2553Z" fill="white" stroke="black" stroke-width="1.38298" stroke-linejoin="round"/>
<path d="M43.1809 30.0426C43.1809 29.6607 43.4905 29.3511 43.8724 29.3511H83.9788C84.3607 29.3511 84.6703 29.6607 84.6703 30.0426V72.9149C84.6703 73.2968 84.3607 73.6064 83.9788 73.6064H43.8724C43.4905 73.6064 43.1809 73.2968 43.1809 72.9149V30.0426Z" fill="white" stroke="black" stroke-width="0.691489" stroke-linejoin="round"/>
<path d="M3.76587 4.45745C3.76587 4.07555 4.07546 3.76596 4.45736 3.76596H44.5637C44.9456 3.76596 45.2552 4.07555 45.2552 4.45745C45.2552 4.83935 44.9456 5.14894 44.5637 5.14894H4.45736C4.07546 5.14894 3.76587 4.83935 3.76587 4.45745Z" fill="white" stroke="black" stroke-width="0.691489" stroke-linejoin="round"/>
<path d="M3.76587 24.5106C3.76587 24.1287 4.07546 23.8192 4.45736 23.8192H30.734C31.1159 23.8192 31.4254 24.1287 31.4254 24.5106C31.4254 24.8925 31.1159 25.2021 30.734 25.2021H4.45736C4.07546 25.2021 3.76587 24.8925 3.76587 24.5106Z" fill="white" stroke="black" stroke-width="0.691489" stroke-linejoin="round"/>
<path d="M3.76587 28.6596C3.76587 28.2777 4.07546 27.9681 4.45736 27.9681H30.734C31.1159 27.9681 31.4254 28.2777 31.4254 28.6596C31.4254 29.0415 31.1159 29.3511 30.734 29.3511H4.45736C4.07546 29.3511 3.76587 29.0415 3.76587 28.6596Z" fill="white" stroke="black" stroke-width="0.691489" stroke-linejoin="round"/>
<path d="M3.76587 32.8085C3.76587 32.4266 4.07546 32.117 4.45736 32.117H30.734C31.1159 32.117 31.4254 32.4266 31.4254 32.8085C31.4254 33.1904 31.1159 33.5 30.734 33.5H4.45736C4.07546 33.5 3.76587 33.1904 3.76587 32.8085Z" fill="white" stroke="black" stroke-width="0.691489" stroke-linejoin="round"/>
<path d="M3.76587 81.9043C3.76587 81.5224 4.07546 81.2128 4.45736 81.2128H30.734C31.1159 81.2128 31.4254 81.5224 31.4254 81.9043C31.4254 82.2862 31.1159 82.5957 30.734 82.5957H4.45736C4.07546 82.5957 3.76587 82.2862 3.76587 81.9043Z" fill="white" stroke="black" stroke-width="0.691489" stroke-linejoin="round"/>
<path d="M3.76587 36.9575C3.76587 36.5756 4.07546 36.266 4.45736 36.266H30.734C31.1159 36.266 31.4254 36.5756 31.4254 36.9575C31.4254 37.3393 31.1159 37.6489 30.734 37.6489H4.45736C4.07546 37.6489 3.76587 37.3393 3.76587 36.9575Z" fill="white" stroke="black" stroke-width="0.691489" stroke-linejoin="round"/>
<path d="M3.76587 86.0532C3.76587 85.6713 4.07546 85.3617 4.45736 85.3617H30.734C31.1159 85.3617 31.4254 85.6713 31.4254 86.0532C31.4254 86.4351 31.1159 86.7447 30.734 86.7447H4.45736C4.07546 86.7447 3.76587 86.4351 3.76587 86.0532Z" fill="white" stroke="black" stroke-width="0.691489" stroke-linejoin="round"/>
<circle cx="126.851" cy="4.45747" r="1.38298" fill="white" stroke="black" stroke-width="0.691489" stroke-linejoin="round"/>
<circle cx="122.702" cy="4.45747" r="1.38298" fill="white" stroke="black" stroke-width="0.691489" stroke-linejoin="round"/>
<circle cx="118.553" cy="4.45747" r="1.38298" fill="white" stroke="black" stroke-width="0.691489" stroke-linejoin="round"/>
<circle cx="6.53183" cy="12.7553" r="2.76596" fill="white" stroke="black" stroke-width="0.691489" stroke-linejoin="round"/>
<circle cx="14.8297" cy="12.7553" r="2.76596" fill="white" stroke="black" stroke-width="0.691489" stroke-linejoin="round"/>
<circle cx="23.1278" cy="12.7553" r="2.76596" fill="white" stroke="black" stroke-width="0.691489" stroke-linejoin="round"/>
<circle cx="117.17" cy="12.7553" r="2.76596" fill="white" stroke="black" stroke-width="0.691489" stroke-linejoin="round"/>
<circle cx="125.468" cy="12.7553" r="2.76596" fill="white" stroke="black" stroke-width="0.691489" stroke-linejoin="round"/>
</svg>
