<svg width="69" height="102" viewBox="0 0 69 102" fill="none" xmlns="http://www.w3.org/2000/svg">
<path d="M6.4917 2.1967C6.4917 1.28679 7.22933 0.549164 8.13924 0.549164H13.631C14.541 0.549164 15.2786 1.28679 15.2786 2.1967V100.5H6.4917V2.1967Z" fill="white" stroke="black" stroke-width="1.09836" stroke-linejoin="round"/>
<path d="M53.7214 2.1967C53.7214 1.28679 54.4591 0.549164 55.369 0.549164H60.8608C61.7707 0.549164 62.5083 1.28679 62.5083 2.1967V100.5H53.7214V2.1967Z" fill="white" stroke="black" stroke-width="1.09836" stroke-linejoin="round"/>
<path d="M5.94263 8.7869H15.8279V14.2787H5.94263V8.7869Z" fill="white" stroke="black" stroke-width="1.09836" stroke-linejoin="round"/>
<path d="M53.1721 8.7869H63.0574V14.2787H53.1721V8.7869Z" fill="white" stroke="black" stroke-width="1.09836" stroke-linejoin="round"/>
<path d="M5.94263 9.88528H15.8279V13.1804H5.94263V9.88528Z" fill="white" stroke="black" stroke-width="0.54918" stroke-linejoin="round"/>
<path d="M53.1721 9.88528H63.0574V13.1804H53.1721V9.88528Z" fill="white" stroke="black" stroke-width="0.54918" stroke-linejoin="round"/>
<path d="M5.94263 2.74588H15.8279V3.84424H5.94263V2.74588Z" fill="white" stroke="black" stroke-width="0.54918" stroke-linejoin="round"/>
<path d="M53.1721 2.74588H63.0574V3.84424H53.1721V2.74588Z" fill="white" stroke="black" stroke-width="0.54918" stroke-linejoin="round"/>
<path d="M5.94263 21.4181H15.8279V26.9099H5.94263V21.4181Z" fill="white" stroke="black" stroke-width="1.09836" stroke-linejoin="round"/>
<path d="M53.1721 21.4181H63.0574V26.9099H53.1721V21.4181Z" fill="white" stroke="black" stroke-width="1.09836" stroke-linejoin="round"/>
<path d="M5.94263 34.0492H15.8279V39.541H5.94263V34.0492Z" fill="white" stroke="black" stroke-width="1.09836" stroke-linejoin="round"/>
<path d="M53.1721 34.0492H63.0574V39.541H53.1721V34.0492Z" fill="white" stroke="black" stroke-width="1.09836" stroke-linejoin="round"/>
<path d="M5.94263 22.5164H15.8279V25.8114H5.94263V22.5164Z" fill="white" stroke="black" stroke-width="0.54918" stroke-linejoin="round"/>
<path d="M53.1721 22.5164H63.0574V25.8114H53.1721V22.5164Z" fill="white" stroke="black" stroke-width="0.54918" stroke-linejoin="round"/>
<path d="M5.94263 35.1475H15.8279V38.4426H5.94263V35.1475Z" fill="white" stroke="black" stroke-width="0.54918" stroke-linejoin="round"/>
<path d="M53.1721 35.1475H63.0574V38.4426H53.1721V35.1475Z" fill="white" stroke="black" stroke-width="0.54918" stroke-linejoin="round"/>
<path d="M1 97.2049H20.7705V100.5H1V97.2049Z" fill="white" stroke="black" stroke-width="1.09836" stroke-linejoin="round"/>
<path d="M48.2295 97.2049H68V100.5H48.2295V97.2049Z" fill="white" stroke="black" stroke-width="1.09836" stroke-linejoin="round"/>
<path d="M1.54907 96.1065H20.2212V97.2049H1.54907V96.1065Z" fill="white" stroke="black" stroke-width="0.54918" stroke-linejoin="round"/>
<path d="M48.7786 96.1065H67.4507V97.2049H48.7786V96.1065Z" fill="white" stroke="black" stroke-width="0.54918" stroke-linejoin="round"/>
<path d="M5.94263 93.3607H15.8279V94.459H5.94263V93.3607Z" fill="white" stroke="black" stroke-width="0.54918" stroke-linejoin="round"/>
<path d="M53.1721 93.3607H63.0574V94.459H53.1721V93.3607Z" fill="white" stroke="black" stroke-width="0.54918" stroke-linejoin="round"/>
<path d="M16.377 18.1229C16.377 22.9295 18.2863 27.5391 21.685 30.9378C25.0838 34.3365 29.6934 36.2459 34.4999 36.2459C39.3064 36.2459 43.9161 34.3365 47.3148 30.9378C50.7135 27.5391 52.6229 22.9295 52.6229 18.123" stroke="black" stroke-width="1.09836" stroke-linejoin="round"/>
<circle cx="16.3769" cy="18.123" r="1.09836" fill="white" stroke="black" stroke-width="0.54918" stroke-linejoin="round"/>
<circle cx="52.623" cy="18.123" r="1.09836" fill="white" stroke="black" stroke-width="0.54918" stroke-linejoin="round"/>
</svg>
