<svg width="83" height="101" viewBox="0 0 83 101" fill="none" xmlns="http://www.w3.org/2000/svg">
<path d="M26.8979 5.40814C26.8979 2.97358 28.8716 0.999969 31.3061 0.999969H77.5918C80.0264 0.999969 82 2.97357 82 5.40813V95.7755C82 98.21 80.0264 100.184 77.5918 100.184H31.3061C28.8716 100.184 26.8979 98.21 26.8979 95.7755V5.40814Z" fill="white" stroke="black" stroke-width="1.10204" stroke-linejoin="round"/>
<path d="M1 8.98979C1 7.92467 1.86345 7.06122 2.92857 7.06122C3.99369 7.06122 4.85714 7.92467 4.85714 8.98979V92.1939C4.85714 93.259 3.99369 94.1224 2.92857 94.1224C1.86345 94.1224 1 93.259 1 92.1939V8.98979Z" fill="white" stroke="black" stroke-width="1.10204" stroke-linejoin="round"/>
<path d="M1 34.0612H4.85714V67.1224H1V34.0612Z" fill="white" stroke="black" stroke-width="1.10204" stroke-linejoin="round"/>
<path d="M2.65283 5.40814C2.65283 2.97358 4.62643 0.999969 7.061 0.999969H19.7345C22.169 0.999969 24.1426 2.97357 24.1426 5.40813V95.7755C24.1426 98.21 22.169 100.184 19.7345 100.184H7.06099C4.62643 100.184 2.65283 98.21 2.65283 95.7755V5.40814Z" fill="white" stroke="black" stroke-width="1.10204" stroke-linejoin="round"/>
<path d="M24.1431 7.06122H26.8982V94.1224H24.1431V7.06122Z" fill="white" stroke="black" stroke-width="1.10204" stroke-linejoin="round"/>
<path d="M28.5508 5.40815C28.5508 3.88655 29.7843 2.65305 31.3059 2.65305H77.5916C79.1132 2.65305 80.3467 3.88655 80.3467 5.40815V95.7755C80.3467 97.2971 79.1132 98.5306 77.5916 98.5306H31.3059C29.7843 98.5306 28.5508 97.2971 28.5508 95.7755V5.40815Z" fill="white" stroke="black" stroke-width="0.55102" stroke-linejoin="round"/>
<path d="M28.5508 5.40815C28.5508 3.88654 29.7843 2.65305 31.3059 2.65305H77.5916C79.1132 2.65305 80.3467 3.88655 80.3467 5.40815V46.7347H28.5508V5.40815Z" fill="white" stroke="black" stroke-width="0.55102" stroke-linejoin="round"/>
<path d="M28.5508 47.8367H80.3467V46.7347H28.5508V47.8367Z" fill="white" stroke="black" stroke-width="0.55102" stroke-linejoin="round"/>
<path d="M32.959 10.3673C32.959 8.54142 34.4392 7.06122 36.2651 7.06122H72.6325C74.4584 7.06122 75.9386 8.54142 75.9386 10.3673V39.0204C75.9386 40.8463 74.4584 42.3265 72.6325 42.3265H36.2651C34.4392 42.3265 32.959 40.8463 32.959 39.0204V10.3673Z" fill="white" stroke="black" stroke-width="1.10204" stroke-linejoin="round"/>
<path d="M34.6123 10.3673C34.6123 9.45436 35.3524 8.71426 36.2654 8.71426H72.6327C73.5457 8.71426 74.2858 9.45436 74.2858 10.3673V39.0204C74.2858 39.9333 73.5457 40.6734 72.6327 40.6734H36.2654C35.3524 40.6734 34.6123 39.9333 34.6123 39.0204V10.3673Z" fill="white" stroke="black" stroke-width="0.55102" stroke-linejoin="round"/>
<circle cx="75.939" cy="52.2449" r="1.10204" fill="white" stroke="black" stroke-width="0.55102" stroke-linejoin="round"/>
<circle cx="72.6328" cy="52.2449" r="1.10204" fill="white" stroke="black" stroke-width="0.55102" stroke-linejoin="round"/>
<circle cx="74.2859" cy="92.4694" r="2.7551" fill="white" stroke="black" stroke-width="1.10204" stroke-linejoin="round"/>
<circle cx="74.2859" cy="82.551" r="2.7551" fill="white" stroke="black" stroke-width="1.10204" stroke-linejoin="round"/>
<circle cx="74.2859" cy="72.6326" r="2.7551" fill="white" stroke="black" stroke-width="1.10204" stroke-linejoin="round"/>
</svg>
