<svg width="140" height="140" viewBox="0 0 140 140" fill="none" xmlns="http://www.w3.org/2000/svg">
<path d="M54.8979 24.4081C54.8979 21.9736 56.8716 20 59.3061 20H105.592C108.026 20 110 21.9736 110 24.4081V114.775C110 117.21 108.026 119.184 105.592 119.184H59.3061C56.8716 119.184 54.8979 117.21 54.8979 114.775V24.4081Z" fill="white" stroke="black" stroke-width="1.10204" stroke-linejoin="round"/>
<path d="M29 27.9898C29 26.9247 29.8635 26.0612 30.9286 26.0612C31.9937 26.0612 32.8571 26.9247 32.8571 27.9898V111.194C32.8571 112.259 31.9937 113.122 30.9286 113.122C29.8635 113.122 29 112.259 29 111.194V27.9898Z" fill="white" stroke="black" stroke-width="1.10204" stroke-linejoin="round"/>
<path d="M29 53.0612H32.8571V86.1224H29V53.0612Z" fill="white" stroke="black" stroke-width="1.10204" stroke-linejoin="round"/>
<path d="M30.6528 24.4081C30.6528 21.9736 32.6264 20 35.061 20H47.7345C50.169 20 52.1426 21.9736 52.1426 24.4081V114.775C52.1426 117.21 50.169 119.184 47.7345 119.184H35.061C32.6264 119.184 30.6528 117.21 30.6528 114.775V24.4081Z" fill="white" stroke="black" stroke-width="1.10204" stroke-linejoin="round"/>
<path d="M52.1431 26.0612H54.8982V113.122H52.1431V26.0612Z" fill="white" stroke="black" stroke-width="1.10204" stroke-linejoin="round"/>
<path d="M56.5508 24.4082C56.5508 22.8866 57.7843 21.653 59.3059 21.653H105.592C107.113 21.653 108.347 22.8865 108.347 24.4081V114.775C108.347 116.297 107.113 117.531 105.592 117.531H59.3059C57.7843 117.531 56.5508 116.297 56.5508 114.775V24.4082Z" fill="white" stroke="black" stroke-width="0.55102" stroke-linejoin="round"/>
<path d="M56.5508 24.4081C56.5508 22.8865 57.7843 21.653 59.3059 21.653H105.592C107.113 21.653 108.347 22.8865 108.347 24.4081V65.7347H56.5508V24.4081Z" fill="white" stroke="black" stroke-width="0.55102" stroke-linejoin="round"/>
<path d="M56.5508 66.8367H108.347V65.7347H56.5508V66.8367Z" fill="white" stroke="black" stroke-width="0.55102" stroke-linejoin="round"/>
<path d="M60.959 29.3673C60.959 27.5414 62.4392 26.0612 64.2651 26.0612H100.632C102.458 26.0612 103.939 27.5414 103.939 29.3673V58.0204C103.939 59.8463 102.458 61.3265 100.632 61.3265H64.2651C62.4392 61.3265 60.959 59.8463 60.959 58.0204V29.3673Z" fill="white" stroke="black" stroke-width="1.10204" stroke-linejoin="round"/>
<path d="M62.6123 29.3673C62.6123 28.4544 63.3524 27.7143 64.2654 27.7143H100.633C101.546 27.7143 102.286 28.4544 102.286 29.3673V58.0204C102.286 58.9333 101.546 59.6734 100.633 59.6734H64.2654C63.3524 59.6734 62.6123 58.9333 62.6123 58.0204V29.3673Z" fill="white" stroke="black" stroke-width="0.55102" stroke-linejoin="round"/>
<circle cx="103.939" cy="71.2449" r="1.10204" fill="white" stroke="black" stroke-width="0.55102" stroke-linejoin="round"/>
<circle cx="100.633" cy="71.2449" r="1.10204" fill="white" stroke="black" stroke-width="0.55102" stroke-linejoin="round"/>
<circle cx="102.286" cy="111.469" r="2.7551" fill="white" stroke="black" stroke-width="1.10204" stroke-linejoin="round"/>
<circle cx="102.286" cy="101.551" r="2.7551" fill="white" stroke="black" stroke-width="1.10204" stroke-linejoin="round"/>
<circle cx="102.286" cy="91.6326" r="2.7551" fill="white" stroke="black" stroke-width="1.10204" stroke-linejoin="round"/>
</svg>
