<svg width="140" height="140" viewBox="0 0 140 140" fill="none" xmlns="http://www.w3.org/2000/svg">
<g clip-path="url(#clip0_1409_1155)">
<path d="M-3 90C-3 88.8954 -2.10457 88 -1 88H84C85.1046 88 86 88.8954 86 90V119C86 120.105 85.1046 121 84 121H-1C-2.10457 121 -3 120.105 -3 119V90Z" fill="white"/>
<path d="M100.935 25.4359C100.935 23.0341 102.882 21.0872 105.283 21.0872H135.232C137.633 21.0872 139.58 23.0341 139.58 25.4359V120.564H100.935V25.4359Z" fill="white" stroke="black" stroke-width="1.08718" stroke-linejoin="round"/>
<path d="M103.695 24.8924C103.695 23.6915 104.669 22.718 105.87 22.718H134.646C135.847 22.718 136.82 23.6915 136.82 24.8924V120.564H103.695V24.8924Z" fill="white" stroke="black" stroke-width="0.54359" stroke-linejoin="round"/>
<path d="M-3 121L83.8256 121C85.0265 121 86 120.027 86 118.826L86 90.1744C86 88.9735 85.0265 88 83.8256 88L-3 88" stroke="black" stroke-linejoin="round"/>
<path d="M117.498 60.7692C117.498 60.469 117.741 60.2256 118.042 60.2256H122.475C122.776 60.2256 123.019 60.469 123.019 60.7692V69.4666C123.019 69.7668 122.776 70.0102 122.475 70.0102H118.042C117.741 70.0102 117.498 69.7668 117.498 69.4666V60.7692Z" fill="white" stroke="black" stroke-width="0.54359" stroke-linejoin="round"/>
<path d="M117.498 53.7025C117.498 53.4023 117.741 53.1589 118.042 53.1589H122.475C122.776 53.1589 123.019 53.4023 123.019 53.7025V56.9641C123.019 57.2643 122.776 57.5077 122.475 57.5077H118.042C117.741 57.5077 117.498 57.2643 117.498 56.9641V53.7025Z" fill="white" stroke="black" stroke-width="0.54359" stroke-linejoin="round"/>
<path d="M115.428 20.5436C115.428 20.2434 115.671 20 115.971 20H124.546C124.846 20 125.089 20.2434 125.089 20.5436C125.089 20.8438 124.846 21.0872 124.546 21.0872H115.971C115.671 21.0872 115.428 20.8438 115.428 20.5436Z" fill="white" stroke="black" stroke-width="0.54359" stroke-linejoin="round"/>
<path d="M98.8643 56.964C98.8643 56.6638 99.1076 56.4204 99.4078 56.4204H100.391C100.691 56.4204 100.935 56.6638 100.935 56.964V64.5743C100.935 64.8745 100.691 65.1178 100.391 65.1178H99.4078C99.1076 65.1178 98.8643 64.8745 98.8643 64.5743V56.964Z" fill="white" stroke="black" stroke-width="1.08718" stroke-linejoin="round"/>
<path d="M96.1045 32.5026C96.1045 31.6019 96.8346 30.8718 97.7353 30.8718H127.809C131.261 30.8718 134.06 33.6706 134.06 37.1231C134.06 40.5756 131.261 43.3744 127.809 43.3744H97.7353C96.8346 43.3744 96.1045 42.6443 96.1045 41.7436V32.5026Z" fill="white" stroke="black" stroke-width="1.08718" stroke-linejoin="round"/>
<path d="M7.77148 32.5024H96.1048V41.7435H7.77148V32.5024Z" fill="white" stroke="black" stroke-width="1.08718" stroke-linejoin="round"/>
<path d="M5.01074 36.3503C5.01074 34.8257 6.24662 33.5898 7.77116 33.5898V40.6565C6.24662 40.6565 5.01074 39.4206 5.01074 37.8961V36.3503Z" fill="white" stroke="black" stroke-width="1.08718" stroke-linejoin="round"/>
<path d="M7.77148 34.1333H96.1048V40.1128H7.77148V34.1333Z" fill="white" stroke="black" stroke-width="0.54359" stroke-linejoin="round"/>
<path d="M105.767 32.3171C105.767 31.5189 106.414 30.8718 107.212 30.8718H125.049C128.502 30.8718 131.3 33.6706 131.3 37.1231C131.3 40.5756 128.502 43.3744 125.049 43.3744H107.212C106.414 43.3744 105.767 42.7273 105.767 41.9291V32.3171Z" fill="white" stroke="black" stroke-width="1.08718" stroke-linejoin="round"/>
<path d="M108.526 30.8718H110.597V43.3744H108.526V30.8718Z" fill="white" stroke="black" stroke-width="0.54359" stroke-linejoin="round"/>
<path d="M32 88L-1 121" stroke="black" stroke-width="0.53"/>
<path d="M70 88L37 121" stroke="black" stroke-width="0.53"/>
<path d="M11 88L-3 102" stroke="black" stroke-width="0.53"/>
<path d="M49.1874 88.1874C49.2909 88.0839 49.2909 87.9161 49.1874 87.8126C49.0839 87.7091 48.9161 87.7091 48.8126 87.8126L49.1874 88.1874ZM48.8126 87.8126L15.8126 120.813L16.1874 121.187L49.1874 88.1874L48.8126 87.8126Z" fill="black"/>
<path d="M86 90L55 121" stroke="black" stroke-width="0.53"/>
<path d="M-3 90H86" stroke="black" stroke-width="0.53"/>
</g>
<defs>
<clipPath id="clip0_1409_1155">
<rect width="140" height="140" fill="white"/>
</clipPath>
</defs>
</svg>
