<svg width="145" height="103" viewBox="0 0 145 103" fill="none" xmlns="http://www.w3.org/2000/svg">
<path d="M1 71C1 69.8954 1.89543 69 3 69H88C89.1046 69 90 69.8954 90 71V100C90 101.105 89.1046 102 88 102H3C1.89543 102 1 101.105 1 100V71Z" fill="white"/>
<path d="M104.935 6.43564C104.935 4.03391 106.882 2.08691 109.283 2.08691H139.232C141.633 2.08691 143.58 4.0339 143.58 6.43563V101.564H104.935V6.43564Z" fill="white" stroke="black" stroke-width="1.08718" stroke-linejoin="round"/>
<path d="M107.695 5.89213C107.695 4.69127 108.669 3.71777 109.87 3.71777H138.646C139.847 3.71777 140.82 4.69127 140.82 5.89213V101.564H107.695V5.89213Z" fill="white" stroke="black" stroke-width="0.54359" stroke-linejoin="round"/>
<path d="M1 102L87.8256 102C89.0265 102 90 101.027 90 99.8256L90 71.1744C90 69.9735 89.0265 69 87.8256 69L1 69" stroke="black" stroke-linejoin="round"/>
<path d="M121.498 41.7692C121.498 41.469 121.741 41.2256 122.042 41.2256H126.475C126.776 41.2256 127.019 41.469 127.019 41.7692V50.4666C127.019 50.7668 126.776 51.0102 126.475 51.0102H122.042C121.741 51.0102 121.498 50.7668 121.498 50.4666V41.7692Z" fill="white" stroke="black" stroke-width="0.54359" stroke-linejoin="round"/>
<path d="M121.498 34.7028C121.498 34.4026 121.741 34.1592 122.042 34.1592H126.475C126.776 34.1592 127.019 34.4026 127.019 34.7028V37.9643C127.019 38.2645 126.776 38.5079 126.475 38.5079H122.042C121.741 38.5079 121.498 38.2645 121.498 37.9643V34.7028Z" fill="white" stroke="black" stroke-width="0.54359" stroke-linejoin="round"/>
<path d="M119.428 1.54359C119.428 1.24337 119.671 1 119.971 1H128.546C128.846 1 129.089 1.24337 129.089 1.54359C129.089 1.84381 128.846 2.08718 128.546 2.08718H119.971C119.671 2.08718 119.428 1.84381 119.428 1.54359Z" fill="white" stroke="black" stroke-width="0.54359" stroke-linejoin="round"/>
<path d="M102.864 37.964C102.864 37.6638 103.108 37.4204 103.408 37.4204H104.391C104.691 37.4204 104.935 37.6638 104.935 37.964V45.5743C104.935 45.8745 104.691 46.1178 104.391 46.1178H103.408C103.108 46.1178 102.864 45.8745 102.864 45.5743V37.964Z" fill="white" stroke="black" stroke-width="1.08718" stroke-linejoin="round"/>
<path d="M100.104 13.5028C100.104 12.6022 100.835 11.8721 101.735 11.8721H131.809C135.261 11.8721 138.06 14.6709 138.06 18.1234C138.06 21.5758 135.261 24.3746 131.809 24.3746H101.735C100.835 24.3746 100.104 23.6445 100.104 22.7439V13.5028Z" fill="white" stroke="black" stroke-width="1.08718" stroke-linejoin="round"/>
<path d="M11.7715 13.5024H100.105V22.7435H11.7715V13.5024Z" fill="white" stroke="black" stroke-width="1.08718" stroke-linejoin="round"/>
<path d="M9.01074 17.3503C9.01074 15.8257 10.2466 14.5898 11.7712 14.5898V21.6565C10.2466 21.6565 9.01074 20.4206 9.01074 18.8961V17.3503Z" fill="white" stroke="black" stroke-width="1.08718" stroke-linejoin="round"/>
<path d="M11.7715 15.1333H100.105V21.1128H11.7715V15.1333Z" fill="white" stroke="black" stroke-width="0.54359" stroke-linejoin="round"/>
<path d="M109.767 13.3174C109.767 12.5192 110.414 11.8721 111.212 11.8721H129.049C132.502 11.8721 135.3 14.6709 135.3 18.1234C135.3 21.5758 132.502 24.3746 129.049 24.3746H111.212C110.414 24.3746 109.767 23.7275 109.767 22.9293V13.3174Z" fill="white" stroke="black" stroke-width="1.08718" stroke-linejoin="round"/>
<path d="M112.526 11.8721H114.597V24.3746H112.526V11.8721Z" fill="white" stroke="black" stroke-width="0.54359" stroke-linejoin="round"/>
<path d="M36 69L3 102" stroke="black" stroke-width="0.53"/>
<path d="M74 69L41 102" stroke="black" stroke-width="0.53"/>
<path d="M15 69L1 83" stroke="black" stroke-width="0.53"/>
<path d="M53.1874 69.1874C53.2909 69.0839 53.2909 68.9161 53.1874 68.8126C53.0839 68.7091 52.9161 68.7091 52.8126 68.8126L53.1874 69.1874ZM52.8126 68.8126L19.8126 101.813L20.1874 102.187L53.1874 69.1874L52.8126 68.8126Z" fill="black"/>
<path d="M90 71L59 102" stroke="black" stroke-width="0.53"/>
<path d="M1 71H90" stroke="black" stroke-width="0.53"/>
</svg>
