<svg width="94" height="104" viewBox="0 0 94 104" fill="none" xmlns="http://www.w3.org/2000/svg">
<path d="M14 17.3487C14 14.947 15.947 13 18.3487 13H24.6513C27.053 13 29 14.947 29 17.3487V47H14V17.3487Z" fill="white" stroke="black" stroke-width="1.08718" stroke-linejoin="round"/>
<path d="M9 5.34872C9 2.94699 10.947 1 13.3487 1H29.6513C32.053 1 34 2.94699 34 5.34872V19H9V5.34872Z" fill="white" stroke="black" stroke-width="1.08718" stroke-linejoin="round"/>
<path d="M1 90.3487C1 87.947 2.94699 86 5.34872 86H37.6513C40.053 86 42 87.947 42 90.3487V103H1V90.3487Z" fill="white" stroke="black" stroke-width="1.08718" stroke-linejoin="round"/>
<path d="M9 31.3487C9 28.947 10.947 27 13.3487 27H29.6513C32.053 27 34 28.947 34 31.3487V86H9V31.3487Z" fill="white" stroke="black" stroke-width="1.08718" stroke-linejoin="round"/>
<path d="M12 5.17436C12 3.97349 12.9735 3 14.1744 3H28.8256C30.0265 3 31 3.97349 31 5.17436V19H12V5.17436Z" fill="white" stroke="black" stroke-width="0.54359" stroke-linejoin="round"/>
<path d="M9 61H34" stroke="black" stroke-width="0.54359" stroke-linejoin="round"/>
<path d="M9 66H34" stroke="black" stroke-width="0.54359" stroke-linejoin="round"/>
<path d="M5 90.1744C5 88.9735 5.97349 88 7.17436 88H35.8256C37.0265 88 38 88.9735 38 90.1744V103H5V90.1744Z" fill="white" stroke="black" stroke-width="0.54359" stroke-linejoin="round"/>
<circle cx="9" cy="92" r="1" fill="black"/>
<circle cx="34" cy="92" r="1" fill="black"/>
<path d="M65 17.3487C65 14.947 66.947 13 69.3487 13H75.6513C78.053 13 80 14.947 80 17.3487V47H65V17.3487Z" fill="white" stroke="black" stroke-width="1.08718" stroke-linejoin="round"/>
<path d="M60 5.34872C60 2.94699 61.947 1 64.3487 1H80.6513C83.053 1 85 2.94699 85 5.34872V19H60V5.34872Z" fill="white" stroke="black" stroke-width="1.08718" stroke-linejoin="round"/>
<path d="M52 90.3487C52 87.947 53.947 86 56.3487 86H88.6513C91.053 86 93 87.947 93 90.3487V103H52V90.3487Z" fill="white" stroke="black" stroke-width="1.08718" stroke-linejoin="round"/>
<path d="M60 31.3487C60 28.947 61.947 27 64.3487 27H80.6513C83.053 27 85 28.947 85 31.3487V86H60V31.3487Z" fill="white" stroke="black" stroke-width="1.08718" stroke-linejoin="round"/>
<path d="M63 5.17436C63 3.97349 63.9735 3 65.1744 3H79.8256C81.0265 3 82 3.97349 82 5.17436V19H63V5.17436Z" fill="white" stroke="black" stroke-width="0.54359" stroke-linejoin="round"/>
<path d="M60 61H85" stroke="black" stroke-width="0.54359" stroke-linejoin="round"/>
<path d="M60 66H85" stroke="black" stroke-width="0.54359" stroke-linejoin="round"/>
<path d="M56 90.1744C56 88.9735 56.9735 88 58.1744 88H86.8256C88.0265 88 89 88.9735 89 90.1744V103H56V90.1744Z" fill="white" stroke="black" stroke-width="0.54359" stroke-linejoin="round"/>
<circle cx="60" cy="92" r="1" fill="black"/>
<circle cx="85" cy="92" r="1" fill="black"/>
</svg>
