<svg width="140" height="140" viewBox="0 0 140 140" fill="none" xmlns="http://www.w3.org/2000/svg">
<path d="M37 35.3487C37 32.947 38.947 31 41.3487 31H47.6513C50.053 31 52 32.947 52 35.3487V65H37V35.3487Z" fill="white" stroke="black" stroke-width="1.08718" stroke-linejoin="round"/>
<path d="M32 23.3487C32 20.947 33.947 19 36.3487 19H52.6513C55.053 19 57 20.947 57 23.3487V37H32V23.3487Z" fill="white" stroke="black" stroke-width="1.08718" stroke-linejoin="round"/>
<path d="M24 108.349C24 105.947 25.947 104 28.3487 104H60.6513C63.053 104 65 105.947 65 108.349V121H24V108.349Z" fill="white" stroke="black" stroke-width="1.08718" stroke-linejoin="round"/>
<path d="M32 49.3487C32 46.947 33.947 45 36.3487 45H52.6513C55.053 45 57 46.947 57 49.3487V104H32V49.3487Z" fill="white" stroke="black" stroke-width="1.08718" stroke-linejoin="round"/>
<path d="M35 23.1744C35 21.9735 35.9735 21 37.1744 21H51.8256C53.0265 21 54 21.9735 54 23.1744V37H35V23.1744Z" fill="white" stroke="black" stroke-width="0.54359" stroke-linejoin="round"/>
<path d="M32 79H57" stroke="black" stroke-width="0.54359" stroke-linejoin="round"/>
<path d="M32 84H57" stroke="black" stroke-width="0.54359" stroke-linejoin="round"/>
<path d="M28 108.174C28 106.973 28.9735 106 30.1744 106H58.8256C60.0265 106 61 106.973 61 108.174V121H28V108.174Z" fill="white" stroke="black" stroke-width="0.54359" stroke-linejoin="round"/>
<circle cx="32" cy="110" r="1" fill="black"/>
<circle cx="57" cy="110" r="1" fill="black"/>
<path d="M88 35.3487C88 32.947 89.947 31 92.3487 31H98.6513C101.053 31 103 32.947 103 35.3487V65H88V35.3487Z" fill="white" stroke="black" stroke-width="1.08718" stroke-linejoin="round"/>
<path d="M83 23.3487C83 20.947 84.947 19 87.3487 19H103.651C106.053 19 108 20.947 108 23.3487V37H83V23.3487Z" fill="white" stroke="black" stroke-width="1.08718" stroke-linejoin="round"/>
<path d="M75 108.349C75 105.947 76.947 104 79.3487 104H111.651C114.053 104 116 105.947 116 108.349V121H75V108.349Z" fill="white" stroke="black" stroke-width="1.08718" stroke-linejoin="round"/>
<path d="M83 49.3487C83 46.947 84.947 45 87.3487 45H103.651C106.053 45 108 46.947 108 49.3487V104H83V49.3487Z" fill="white" stroke="black" stroke-width="1.08718" stroke-linejoin="round"/>
<path d="M86 23.1744C86 21.9735 86.9735 21 88.1744 21H102.826C104.027 21 105 21.9735 105 23.1744V37H86V23.1744Z" fill="white" stroke="black" stroke-width="0.54359" stroke-linejoin="round"/>
<path d="M83 79H108" stroke="black" stroke-width="0.54359" stroke-linejoin="round"/>
<path d="M83 84H108" stroke="black" stroke-width="0.54359" stroke-linejoin="round"/>
<path d="M79 108.174C79 106.973 79.9735 106 81.1744 106H109.826C111.027 106 112 106.973 112 108.174V121H79V108.174Z" fill="white" stroke="black" stroke-width="0.54359" stroke-linejoin="round"/>
<circle cx="83" cy="110" r="1" fill="black"/>
<circle cx="108" cy="110" r="1" fill="black"/>
</svg>
