<svg width="60" height="60" viewBox="0 0 60 60" fill="none" xmlns="http://www.w3.org/2000/svg">
<path d="M33.2432 1.5C34.6538 1.5 35.7973 2.64349 35.7973 4.05405V7.70087C35.7973 10.4819 39.1597 11.8747 41.1262 9.90819L43.8639 7.17056C44.8613 6.17313 46.4784 6.17313 47.4759 7.17055L52.0625 11.7572C53.0599 12.7546 53.0599 14.3717 52.0625 15.3692L48.5579 18.8738C46.5914 20.8403 47.9841 24.2027 50.7652 24.2027L55.9459 24.2027C57.3565 24.2027 58.5 25.3462 58.5 26.7568V33.2432C58.5 34.6538 57.3565 35.7973 55.9459 35.7973H51.5327C48.7516 35.7973 47.3588 39.1597 49.3253 41.1262L52.0628 43.8637C53.0602 44.8611 53.0602 46.4782 52.0628 47.4756L47.4761 52.0623C46.4787 53.0597 44.8616 53.0597 43.8641 52.0623L41.1262 49.3244C39.1597 47.3579 35.7973 48.7506 35.7973 51.5317V55.9459C35.7973 57.3565 34.6538 58.5 33.2432 58.5H26.7568C25.3462 58.5 24.2027 57.3565 24.2027 55.9459V50.7652C24.2027 47.9842 20.8403 46.5914 18.8738 48.5579L15.3694 52.0623C14.372 53.0597 12.7548 53.0597 11.7574 52.0623L7.17077 47.4756C6.17335 46.4782 6.17335 44.8611 7.17077 43.8637L9.9082 41.1262C11.8747 39.1597 10.4819 35.7973 7.70088 35.7973H4.05405C2.64349 35.7973 1.5 34.6538 1.5 33.2432V26.7568C1.5 25.3462 2.64349 24.2027 4.05405 24.2027L8.4683 24.2027C11.2494 24.2027 12.6421 20.8403 10.6756 18.8738L7.17103 15.3692C6.17361 14.3717 6.17361 12.7546 7.17103 11.7572L11.7577 7.17055C12.7551 6.17313 14.3722 6.17313 15.3697 7.17056L18.8738 10.6747C20.8403 12.6412 24.2027 11.2484 24.2027 8.46734V4.05405C24.2027 2.64349 25.3462 1.5 26.7568 1.5H33.2432ZM29.5946 39.6081C35.1249 39.6081 39.6081 35.1249 39.6081 29.5946C39.6081 24.0643 35.1249 19.5811 29.5946 19.5811C24.0643 19.5811 19.5811 24.0643 19.5811 29.5946C19.5811 35.1249 24.0643 39.6081 29.5946 39.6081Z" stroke="#7084C8" stroke-width="3"/>
</svg>
