<svg width="60" height="60" viewBox="0 0 60 60" fill="none" xmlns="http://www.w3.org/2000/svg">
<mask id="path-1-inside-1_1097_887" fill="white">
<path fill-rule="evenodd" clip-rule="evenodd" d="M33 2.25C35.0711 2.25 36.75 3.92893 36.75 6V9.37331C36.75 10.7097 38.3657 11.3789 39.3107 10.434L41.843 7.90165C43.3074 6.43719 45.6818 6.43718 47.1463 7.90165L51.3889 12.1443C52.8534 13.6088 52.8534 15.9831 51.3889 17.4476L48.1472 20.6893C47.2022 21.6343 47.8715 23.25 49.2078 23.25L54 23.25C56.0711 23.25 57.75 24.9289 57.75 27V33C57.75 35.0711 56.0711 36.75 54 36.75H49.9177C48.5813 36.75 47.9121 38.3657 48.857 39.3107L51.3892 41.8428C52.8536 43.3072 52.8536 45.6816 51.3892 47.1461L47.1465 51.3887C45.6821 52.8532 43.3077 52.8532 41.8432 51.3887L39.3107 48.8562C38.3657 47.9112 36.75 48.5805 36.75 49.9168V54C36.75 56.0711 35.0711 57.75 33 57.75H27C24.9289 57.75 23.25 56.0711 23.25 54V49.2078C23.25 47.8715 21.6343 47.2022 20.6893 48.1472L17.4478 51.3887C15.9833 52.8532 13.609 52.8532 12.1445 51.3887L7.90185 47.1461C6.43739 45.6816 6.43739 43.3072 7.90185 41.8428L10.434 39.3107C11.3789 38.3657 10.7097 36.75 9.37331 36.75H6C3.92893 36.75 2.25 35.0711 2.25 33V27C2.25 24.9289 3.92893 23.25 6 23.25H10.0832C11.4195 23.25 12.0888 21.6343 11.1438 20.6893L7.9021 17.4476C6.43763 15.9831 6.43763 13.6088 7.9021 12.1443L12.1447 7.90165C13.6092 6.43718 15.9836 6.43719 17.448 7.90165L20.6893 11.143C21.6343 12.0879 23.25 11.4187 23.25 10.0823V6C23.25 3.92893 24.9289 2.25 27 2.25H33ZM29.625 37.5C33.9742 37.5 37.5 33.9742 37.5 29.625C37.5 25.2758 33.9742 21.75 29.625 21.75C25.2758 21.75 21.75 25.2758 21.75 29.625C21.75 33.9742 25.2758 37.5 29.625 37.5Z"/>
</mask>
<path d="M39.3107 10.434L41.432 12.5553L41.432 12.5553L39.3107 10.434ZM41.843 7.90165L39.7217 5.78033L39.7217 5.78033L41.843 7.90165ZM47.1463 7.90165L45.025 10.023V10.023L47.1463 7.90165ZM51.3889 12.1443L53.5102 10.023V10.023L51.3889 12.1443ZM51.3889 17.4476L53.5102 19.5689L51.3889 17.4476ZM48.1472 20.6893L46.0259 18.568L46.0258 18.568L48.1472 20.6893ZM49.2078 23.25V20.25V23.25ZM54 23.25V26.25V23.25ZM51.3892 47.1461L49.2678 45.0248H49.2678L51.3892 47.1461ZM47.1465 51.3887L49.2678 53.51H49.2678L47.1465 51.3887ZM39.3107 48.8562L41.432 46.7348L41.432 46.7348L39.3107 48.8562ZM20.6893 48.1472L22.8107 50.2685L22.8107 50.2685L20.6893 48.1472ZM17.4478 51.3887L15.3265 49.2674H15.3265L17.4478 51.3887ZM12.1445 51.3887L10.0232 53.51H10.0232L12.1445 51.3887ZM7.90185 47.1461L5.78053 49.2674H5.78053L7.90185 47.1461ZM7.90185 41.8428L10.0232 43.9641H10.0232L7.90185 41.8428ZM10.434 39.3107L8.31265 37.1893L8.31265 37.1893L10.434 39.3107ZM11.1438 20.6893L9.02252 22.8107H9.02252L11.1438 20.6893ZM7.9021 17.4476L5.78077 19.5689H5.78077L7.9021 17.4476ZM7.9021 12.1443L5.78078 10.023L7.9021 12.1443ZM12.1447 7.90165L14.2661 10.023H14.2661L12.1447 7.90165ZM17.448 7.90165L15.3267 10.023L15.3267 10.023L17.448 7.90165ZM20.6893 11.143L22.8107 9.02163V9.02163L20.6893 11.143ZM39.75 6C39.75 2.27208 36.7279 -0.75 33 -0.75V5.25C33.4142 5.25 33.75 5.58579 33.75 6H39.75ZM39.75 9.37331V6H33.75V9.37331H39.75ZM37.1893 8.31264C38.1343 7.36771 39.75 8.03695 39.75 9.37331H33.75C33.75 13.3824 38.5971 15.3901 41.432 12.5553L37.1893 8.31264ZM39.7217 5.78033L37.1893 8.31265L41.432 12.5553L43.9643 10.023L39.7217 5.78033ZM49.2676 5.78033C46.6316 3.14429 42.3577 3.1443 39.7217 5.78033L43.9643 10.023C44.2572 9.73008 44.7321 9.73008 45.025 10.023L49.2676 5.78033ZM53.5102 10.023L49.2676 5.78033L45.025 10.023L49.2676 14.2656L53.5102 10.023ZM53.5102 19.5689C56.1463 16.9329 56.1463 12.659 53.5102 10.023L49.2676 14.2656C49.5605 14.5585 49.5605 15.0334 49.2676 15.3263L53.5102 19.5689ZM50.2685 22.8107L53.5102 19.5689L49.2676 15.3263L46.0259 18.568L50.2685 22.8107ZM49.2078 20.25C50.5442 20.25 51.2134 21.8657 50.2685 22.8107L46.0258 18.568C43.191 21.4029 45.1988 26.25 49.2078 26.25V20.25ZM54 20.25L49.2078 20.25V26.25L54 26.25V20.25ZM60.75 27C60.75 23.2721 57.7279 20.25 54 20.25V26.25C54.4142 26.25 54.75 26.5858 54.75 27H60.75ZM60.75 33V27H54.75V33H60.75ZM54 39.75C57.7279 39.75 60.75 36.7279 60.75 33H54.75C54.75 33.4142 54.4142 33.75 54 33.75V39.75ZM49.9177 39.75H54V33.75H49.9177V39.75ZM50.9784 37.1893C51.9233 38.1343 51.2541 39.75 49.9177 39.75V33.75C45.9086 33.75 43.9009 38.5971 46.7357 41.432L50.9784 37.1893ZM53.5105 39.7215L50.9784 37.1893L46.7357 41.432L49.2678 43.9641L53.5105 39.7215ZM53.5105 49.2674C56.1465 46.6314 56.1465 42.3575 53.5105 39.7215L49.2678 43.9641C49.5607 44.257 49.5607 44.7319 49.2678 45.0248L53.5105 49.2674ZM49.2678 53.51L53.5105 49.2674L49.2678 45.0248L45.0252 49.2674L49.2678 53.51ZM39.7219 53.51C42.3579 56.1461 46.6318 56.1461 49.2678 53.51L45.0252 49.2674C44.7323 49.5603 44.2574 49.5603 43.9645 49.2674L39.7219 53.51ZM37.1893 50.9775L39.7219 53.51L43.9645 49.2674L41.432 46.7348L37.1893 50.9775ZM39.75 49.9168C39.75 51.2532 38.1343 51.9224 37.1893 50.9775L41.432 46.7348C38.5971 43.9 33.75 45.9077 33.75 49.9168H39.75ZM39.75 54V49.9168H33.75V54H39.75ZM33 60.75C36.7279 60.75 39.75 57.7279 39.75 54H33.75C33.75 54.4142 33.4142 54.75 33 54.75V60.75ZM27 60.75H33V54.75H27V60.75ZM20.25 54C20.25 57.7279 23.2721 60.75 27 60.75V54.75C26.5858 54.75 26.25 54.4142 26.25 54H20.25ZM20.25 49.2078V54H26.25V49.2078H20.25ZM22.8107 50.2685C21.8657 51.2135 20.25 50.5442 20.25 49.2078H26.25C26.25 45.1988 21.4029 43.191 18.568 46.0259L22.8107 50.2685ZM19.5691 53.51L22.8107 50.2685L18.568 46.0259L15.3265 49.2674L19.5691 53.51ZM10.0232 53.51C12.6592 56.1461 16.9331 56.1461 19.5691 53.51L15.3265 49.2674C15.0336 49.5603 14.5587 49.5603 14.2658 49.2674L10.0232 53.51ZM5.78053 49.2674L10.0232 53.51L14.2658 49.2674L10.0232 45.0248L5.78053 49.2674ZM5.78053 39.7215C3.14449 42.3575 3.1445 46.6314 5.78053 49.2674L10.0232 45.0248C9.73028 44.7319 9.73028 44.257 10.0232 43.9641L5.78053 39.7215ZM8.31265 37.1893L5.78053 39.7215L10.0232 43.9641L12.5553 41.432L8.31265 37.1893ZM9.37331 39.75C8.03695 39.75 7.3677 38.1343 8.31265 37.1893L12.5553 41.432C15.3901 38.5971 13.3824 33.75 9.37331 33.75V39.75ZM6 39.75H9.37331V33.75H6V39.75ZM-0.75 33C-0.75 36.7279 2.27208 39.75 6 39.75V33.75C5.58579 33.75 5.25 33.4142 5.25 33H-0.75ZM-0.75 27V33H5.25V27H-0.75ZM6 20.25C2.27208 20.25 -0.75 23.2721 -0.75 27H5.25C5.25 26.5858 5.58579 26.25 6 26.25V20.25ZM10.0832 20.25H6V26.25H10.0832V20.25ZM9.02252 22.8107C8.07757 21.8657 8.74683 20.25 10.0832 20.25V26.25C14.0922 26.25 16.1 21.4029 13.2652 18.568L9.02252 22.8107ZM5.78077 19.5689L9.02252 22.8107L13.2652 18.568L10.0234 15.3263L5.78077 19.5689ZM5.78078 10.023C3.14474 12.659 3.14474 16.9329 5.78077 19.5689L10.0234 15.3263C9.73052 15.0334 9.73052 14.5585 10.0234 14.2656L5.78078 10.023ZM10.0234 5.78033L5.78078 10.023L10.0234 14.2656L14.2661 10.023L10.0234 5.78033ZM19.5694 5.78033C16.9333 3.1443 12.6595 3.14429 10.0234 5.78033L14.2661 10.023C14.5589 9.73008 15.0338 9.73008 15.3267 10.023L19.5694 5.78033ZM22.8107 9.02163L19.5694 5.78033L15.3267 10.023L18.568 13.2643L22.8107 9.02163ZM20.25 10.0823C20.25 8.74594 21.8657 8.07668 22.8107 9.02163L18.568 13.2643C21.4029 16.0991 26.25 14.0914 26.25 10.0823H20.25ZM20.25 6V10.0823H26.25V6H20.25ZM27 -0.75C23.2721 -0.75 20.25 2.27208 20.25 6H26.25C26.25 5.58579 26.5858 5.25 27 5.25V-0.75ZM33 -0.75H27V5.25H33V-0.75ZM34.5 29.625C34.5 32.3174 32.3174 34.5 29.625 34.5V40.5C35.6311 40.5 40.5 35.6311 40.5 29.625H34.5ZM29.625 24.75C32.3174 24.75 34.5 26.9326 34.5 29.625H40.5C40.5 23.6189 35.6311 18.75 29.625 18.75V24.75ZM24.75 29.625C24.75 26.9326 26.9326 24.75 29.625 24.75V18.75C23.6189 18.75 18.75 23.6189 18.75 29.625H24.75ZM29.625 34.5C26.9326 34.5 24.75 32.3174 24.75 29.625H18.75C18.75 35.6311 23.6189 40.5 29.625 40.5V34.5Z" fill="#7084C8" mask="url(#path-1-inside-1_1097_887)"/>
</svg>
