<svg width="61" height="60" viewBox="0 0 61 60" fill="none" xmlns="http://www.w3.org/2000/svg">
<path d="M16.2423 26.6965L31.0173 34.7556C31.2387 34.8764 31.5059 34.8778 31.7285 34.7594L46.1497 27.0925M16.2423 26.6965C14.1827 28.5688 12.592 33.6376 13.0382 39.1111C13.0591 39.3676 13.2152 39.5929 13.4453 39.708L31.0365 48.5035C31.2476 48.6091 31.4962 48.6091 31.7073 48.5035L49.2875 39.7134C49.5236 39.5954 49.6812 39.3642 49.6948 39.1006C49.865 35.8157 49.3825 29.4284 46.1497 27.0925M16.2423 26.6965L7.09411 21.7066M46.1497 27.0925L57.892 20.8497C58.4286 20.5644 58.4209 19.7929 57.8787 19.5184L31.7151 6.27093C31.4996 6.16184 31.2448 6.16317 31.0305 6.2745L5.5294 19.5218C4.99652 19.7987 4.98883 20.5583 5.51601 20.8458L7.09411 21.7066M7.09411 21.7066V42.3379" stroke="#7084C8" stroke-width="3"/>
<path d="M3.66992 46.912C3.66992 45.0199 5.20376 43.4861 7.09585 43.4861C8.98793 43.4861 10.5218 45.0199 10.5218 46.912V53.1528H3.66992V46.912Z" stroke="#7084C8" stroke-width="3"/>
</svg>
