<svg width="61" height="60" viewBox="0 0 61 60" fill="none" xmlns="http://www.w3.org/2000/svg">
<g clip-path="url(#clip0_1097_844)">
<path d="M49.0003 29.4571L47.5009 29.4986L49.0003 29.4571C48.997 29.3368 49.0226 29.2175 49.0751 29.1092L52.6102 21.8174C53.3921 20.2047 52.9235 18.2642 51.4919 17.186L45.0189 12.3108C44.9228 12.2384 44.8455 12.1439 44.7936 12.0353L41.2967 4.72509C40.5233 3.10836 38.7141 2.26482 36.9785 2.71181L29.131 4.73293C29.0145 4.76294 28.8924 4.76447 28.7752 4.73739L20.8795 2.91351C19.1333 2.51014 17.3458 3.39873 16.6132 5.03433L13.3005 12.4299C13.2513 12.5397 13.1764 12.6361 13.0821 12.7109L6.73329 17.7468C5.32918 18.8605 4.9094 20.8121 5.73137 22.4047L9.44805 29.6057C9.50324 29.7126 9.53189 29.8313 9.53158 29.9516L9.51038 38.0551C9.50569 39.8473 10.7698 41.3923 12.5274 41.7426L20.4746 43.3266C20.5927 43.3501 20.7033 43.4017 20.7972 43.4769L27.1196 48.546C28.5178 49.6671 30.5139 49.6421 31.8836 48.4863L38.077 43.2605C38.169 43.1829 38.2783 43.1285 38.3957 43.102L46.3008 41.3195C48.0491 40.9253 49.2741 39.3491 49.2245 37.5576L49.0003 29.4571Z" stroke="#7084C8" stroke-width="3"/>
<circle cx="29.2105" cy="25.0179" r="11.1109" stroke="#7084C8" stroke-width="3"/>
<path d="M15.708 42.7503L11.8944 53.2138C11.7056 53.7317 12.1214 54.2695 12.6702 54.2172L18.3324 53.6778C18.5314 53.6588 18.7297 53.7201 18.8833 53.8479L23.3839 57.594C23.7765 57.9208 24.3737 57.7681 24.5613 57.2931L28.083 48.3751" stroke="#7084C8" stroke-width="3"/>
<path d="M42.7211 41.3779L47.0796 53.2107C47.2705 53.729 46.8546 54.2689 46.3047 54.2165L40.6469 53.6775C40.4479 53.6586 40.2496 53.7198 40.096 53.8477L35.5706 57.6144C35.1854 57.9351 34.6 57.7949 34.4019 57.3344L30.709 48.7499" stroke="#7084C8" stroke-width="3"/>
</g>
<defs>
<clipPath id="clip0_1097_844">
<rect width="60" height="60" fill="white" transform="translate(0.333984)"/>
</clipPath>
</defs>
</svg>
