<svg width="60" height="60" viewBox="0 0 60 60" fill="none" xmlns="http://www.w3.org/2000/svg">
<path d="M41.39 49.3376C42.3147 49.4431 43.3129 49.5 44.3906 49.5C58.3282 49.5 58.9827 39.9798 59.0156 39.0837V38.7468C59.0156 37.3208 58.4378 35.9532 57.4093 34.9449C56.3808 33.9366 54.9858 33.3701 53.5312 33.3701H41.5489C41.779 33.5529 42.0003 33.7478 42.212 33.9544C42.9364 34.6618 43.5202 35.4809 43.9458 36.3701H53.5312C54.2091 36.3701 54.8476 36.6347 55.3091 37.0872C55.7686 37.5377 56.0156 38.1359 56.0156 38.7468V39.0145C55.9963 39.3416 55.8297 41.1153 54.5363 42.803C53.2905 44.4284 50.5971 46.5 44.3906 46.5C43.9675 46.5 43.5607 46.4904 43.1695 46.4719C42.7168 47.404 42.1357 48.3765 41.39 49.3376Z" fill="#7084C8"/>
<path fill-rule="evenodd" clip-rule="evenodd" d="M44.3906 31.4221C42.8782 31.4221 41.4044 31.0546 40.0935 30.3701C39.3032 29.9575 38.572 29.4295 37.9272 28.7975C36.213 27.1169 35.25 24.8377 35.25 22.461C35.25 20.0844 36.213 17.8051 37.9272 16.1246C39.6414 14.4441 41.9664 13.5 44.3906 13.5C46.8149 13.5 49.1398 14.4441 50.854 16.1246C52.5682 17.8051 53.5312 20.0844 53.5312 22.461C53.5312 24.8377 52.5682 27.1169 50.854 28.7975C50.2093 29.4295 49.4781 29.9575 48.6877 30.3701C47.3768 31.0546 45.903 31.4221 44.3906 31.4221ZM50.5312 22.461C50.5312 24.0226 49.8991 25.5325 48.7539 26.6552C47.6066 27.7799 46.0382 28.4221 44.3906 28.4221C42.743 28.4221 41.1746 27.7799 40.0274 26.6552C38.8822 25.5325 38.25 24.0226 38.25 22.461C38.25 20.8995 38.8822 19.3896 40.0274 18.2669C41.1746 17.1422 42.743 16.5 44.3906 16.5C46.0382 16.5 47.6066 17.1422 48.7539 18.2669C49.8991 19.3896 50.5312 20.8995 50.5312 22.461Z" fill="#7084C8"/>
<path d="M0.75 40.3339C2.25 40.3339 2.25 40.333 2.25 40.332L2.25 40.3305L2.25023 40.3413C2.25059 40.3569 2.25141 40.3853 2.2533 40.4257C2.25708 40.5064 2.26511 40.6347 2.28206 40.8036C2.31601 41.142 2.38543 41.6402 2.52692 42.2445C2.81057 43.4561 3.37794 45.0698 4.50875 46.6798C6.71399 49.8197 11.2794 53.25 21 53.25C30.2719 53.25 34.8463 50.1288 37.1573 47.1344C39.4884 44.1139 39.7261 40.9532 39.75 40.3977V39.9643C39.75 38.4146 39.118 36.9199 37.9795 35.8115C36.8396 34.7018 35.2852 34.0714 33.6562 34.0714H8.34375C6.7148 34.0714 5.16041 34.7018 4.02051 35.8115C2.88197 36.9199 2.25 38.4146 2.25 39.9643V40.3285V40.3339H0.75ZM0.75 40.3339V39.9643C0.75 38.0036 1.55005 36.1232 2.97416 34.7367C4.39826 33.3503 6.32976 32.5714 8.34375 32.5714H33.6562C35.6702 32.5714 37.6017 33.3503 39.0258 34.7367C40.4499 36.1232 41.25 38.0036 41.25 39.9643V40.4276C41.2044 41.6597 40.2982 54.75 21 54.75C0.75 54.75 0.75 40.3339 0.75 40.3339ZM32.1562 17.5714C32.1562 20.4283 30.9909 23.1765 28.903 25.2092C26.8137 27.2432 23.9716 28.3929 21 28.3929C18.0284 28.3929 15.1863 27.2432 13.097 25.2092C11.0091 23.1765 9.84375 20.4283 9.84375 17.5714C9.84375 14.7146 11.0091 11.9663 13.097 9.93364C15.1863 7.89961 18.0284 6.75 21 6.75C23.9716 6.75 26.8137 7.89961 28.903 9.93364C30.9909 11.9663 32.1562 14.7146 32.1562 17.5714Z" stroke="#7084C8" stroke-width="3"/>
</svg>
