<svg width="60" height="60" viewBox="0 0 60 60" fill="none" xmlns="http://www.w3.org/2000/svg">
<path d="M41.39 49.3376C42.3147 49.4431 43.3129 49.5 44.3906 49.5C58.3282 49.5 58.9827 39.9798 59.0156 39.0837V38.7468C59.0156 37.3208 58.4378 35.9532 57.4093 34.9449C56.3808 33.9366 54.9858 33.3701 53.5312 33.3701H41.5489C41.779 33.5529 42.0003 33.7478 42.212 33.9544C42.9364 34.6618 43.5202 35.4809 43.9458 36.3701H53.5312C54.2091 36.3701 54.8476 36.6347 55.3091 37.0872C55.7686 37.5377 56.0156 38.1359 56.0156 38.7468V39.0145C55.9963 39.3416 55.8297 41.1153 54.5363 42.803C53.2905 44.4284 50.5971 46.5 44.3906 46.5C43.9675 46.5 43.5607 46.4904 43.1695 46.4719C42.7168 47.404 42.1357 48.3765 41.39 49.3376Z" fill="#7084C8"/>
<path fill-rule="evenodd" clip-rule="evenodd" d="M44.3906 31.4221C42.8782 31.4221 41.4044 31.0546 40.0935 30.3701C39.3032 29.9575 38.572 29.4295 37.9272 28.7975C36.213 27.1169 35.25 24.8377 35.25 22.461C35.25 20.0844 36.213 17.8051 37.9272 16.1246C39.6414 14.4441 41.9664 13.5 44.3906 13.5C46.8149 13.5 49.1398 14.4441 50.854 16.1246C52.5682 17.8051 53.5312 20.0844 53.5312 22.461C53.5312 24.8377 52.5682 27.1169 50.854 28.7975C50.2093 29.4295 49.4781 29.9575 48.6877 30.3701C47.3768 31.0546 45.903 31.4221 44.3906 31.4221ZM50.5312 22.461C50.5312 24.0226 49.8991 25.5325 48.7539 26.6552C47.6066 27.7799 46.0382 28.4221 44.3906 28.4221C42.743 28.4221 41.1746 27.7799 40.0274 26.6552C38.8822 25.5325 38.25 24.0226 38.25 22.461C38.25 20.8995 38.8822 19.3896 40.0274 18.2669C41.1746 17.1422 42.743 16.5 44.3906 16.5C46.0382 16.5 47.6066 17.1422 48.7539 18.2669C49.8991 19.3896 50.5312 20.8995 50.5312 22.461Z" fill="#7084C8"/>
<path fill-rule="evenodd" clip-rule="evenodd" d="M0.75 40.3339C0.75 40.3339 0.75 54.75 21 54.75C40.2982 54.75 41.2044 41.6597 41.25 40.4276V39.9643C41.25 38.0036 40.4499 36.1232 39.0258 34.7367C37.6017 33.3503 35.6702 32.5714 33.6562 32.5714H8.34375C6.32976 32.5714 4.39826 33.3503 2.97416 34.7367C1.55005 36.1232 0.75 38.0036 0.75 39.9643V40.3339ZM18.1278 29.5714C19.0621 29.7834 20.0252 29.8929 21 29.8929C21.9748 29.8929 22.9379 29.7834 23.8722 29.5714C26.155 29.0535 28.2651 27.9237 29.9493 26.284C32.3228 23.9733 33.6562 20.8393 33.6562 17.5714C33.6562 14.3036 32.3228 11.1696 29.9493 8.85886C27.5758 6.54815 24.3566 5.25 21 5.25C17.6434 5.25 14.4242 6.54815 12.0507 8.85886C9.67717 11.1696 8.34375 14.3036 8.34375 17.5714C8.34375 20.8393 9.67717 23.9733 12.0507 26.284C13.7349 27.9237 15.845 29.0535 18.1278 29.5714ZM38.25 40.3625C38.2246 40.8569 37.9898 43.6005 35.9698 46.2179C33.9924 48.7801 29.8946 51.75 21 51.75C11.6838 51.75 7.61548 48.4934 5.73624 45.8177C4.74026 44.3996 4.23833 42.9743 3.98742 41.9026C3.86266 41.3697 3.80291 40.9364 3.77456 40.6539C3.76044 40.5131 3.75428 40.4115 3.75166 40.3555C3.7507 40.335 3.75022 40.3208 3.75 40.3131V39.9643C3.75 38.8256 4.21389 37.7167 5.06685 36.8863C5.92255 36.0532 7.09985 35.5714 8.34375 35.5714H33.6562C34.9002 35.5714 36.0774 36.0532 36.9331 36.8863C37.7861 37.7167 38.25 38.8256 38.25 39.9643V40.3625ZM27.8566 24.1344C29.659 22.3797 30.6562 20.0173 30.6562 17.5714C30.6562 15.1256 29.659 12.7631 27.8566 11.0084C26.0515 9.25108 23.5866 8.25 21 8.25C18.4134 8.25 15.9485 9.25108 14.1434 11.0084C12.341 12.7631 11.3438 15.1256 11.3438 17.5714C11.3438 20.0173 12.341 22.3797 14.1434 24.1344C15.9485 25.8918 18.4134 26.8929 21 26.8929C23.5866 26.8929 26.0515 25.8918 27.8566 24.1344Z" fill="#7084C8"/>
</svg>
